<svg width="60" height="61" viewBox="0 0 60 61" fill="none" xmlns="http://www.w3.org/2000/svg">
<path d="M0 7.80788C0.150696 7.55997 0.368843 7.36024 0.629162 7.23217C0.889482 7.1041 1.18129 7.05302 1.46965 7.08493C20.486 7.0987 39.5052 7.10263 58.5275 7.09673C59.6753 7.09673 60.0029 7.41542 60.0029 8.54558V52.7744C60.0029 53.9036 59.6763 54.2243 58.5275 54.2243C39.5078 54.2243 20.4887 54.2282 1.46965 54.2361C1.18134 54.2675 0.889869 54.2162 0.629643 54.0882C0.369416 53.9602 0.151049 53.7607 0 53.5131V7.80788ZM57.8359 17.8289H2.17277V52.0485H57.8359V17.8289ZM57.8359 9.26066H2.16413V15.6246H57.8359V9.26066Z" fill="#101010"/>
<path d="M43.4515 34.9091C42.8466 34.3113 42.383 33.5861 42.0938 32.7864C41.8045 31.9867 41.6972 31.1325 41.7797 30.2861C41.8259 29.0783 41.7952 27.8665 41.7864 26.6566C41.7795 25.6848 41.3987 25.3042 40.4397 25.2933C39.8348 25.2865 39.2311 25.3022 38.6252 25.2874C38.4836 25.2963 38.3417 25.2767 38.2078 25.2296C38.074 25.1826 37.9511 25.1092 37.8462 25.0136C37.7413 24.9181 37.6567 24.8025 37.5974 24.6736C37.5381 24.5448 37.5052 24.4053 37.5009 24.2635C37.4969 24.1166 37.5231 23.9704 37.5782 23.8341C37.6333 23.6978 37.7163 23.5744 37.8212 23.4714C37.9262 23.3685 38.0508 23.2883 38.1882 23.2359C38.3255 23.1835 38.4726 23.16 38.6194 23.1668C39.2824 23.1491 39.9463 23.1569 40.6092 23.1668C41.05 23.1526 41.4888 23.2292 41.8988 23.3918C42.3087 23.5543 42.6811 23.7994 42.9924 24.1118C43.3036 24.4242 43.5473 24.7972 43.7085 25.2077C43.8696 25.6183 43.9446 26.0575 43.9289 26.4983C43.9427 27.9225 43.9525 29.3507 43.9289 30.772C43.9102 31.2796 44.001 31.7853 44.195 32.2547C44.389 32.7242 44.6817 33.1464 45.0532 33.4927C46.4568 34.8766 46.4598 35.0281 45.0748 36.3845C44.6951 36.736 44.3957 37.1656 44.1979 37.6438C44 38.1219 43.9085 38.6373 43.9289 39.1543C43.9584 40.5392 43.9415 41.9251 43.9347 43.311C43.9636 43.7664 43.8956 44.2227 43.7349 44.6497C43.5742 45.0767 43.3244 45.4647 43.0024 45.7879C42.6805 46.1112 42.2934 46.3624 41.8671 46.5248C41.4407 46.6872 40.9849 46.7572 40.5295 46.7301C39.8852 46.7301 39.2406 46.7428 38.5964 46.7251C38.3157 46.7251 38.0466 46.6136 37.8481 46.4152C37.6496 46.2167 37.5383 45.9475 37.5383 45.6668C37.5383 45.3861 37.6496 45.1169 37.8481 44.9184C38.0466 44.7199 38.3157 44.6084 38.5964 44.6084C39.22 44.5917 39.846 44.6084 40.4656 44.6015C41.3853 44.5927 41.7775 44.2081 41.7864 43.2756C41.7982 42.1632 41.7864 41.0507 41.7864 39.9383C41.7913 37.3022 41.8935 36.9924 43.4515 34.9091Z" fill="#101010"/>
<path d="M16.5093 34.9476C17.147 35.5765 17.6323 36.3428 17.9285 37.188C18.2248 38.0332 18.324 38.9349 18.2186 39.8243C18.1714 40.9741 18.202 42.1289 18.2129 43.2807C18.2217 44.2073 18.6161 44.5869 19.5466 44.5948C20.1367 44.5997 20.7182 44.5889 21.3044 44.5948C21.453 44.5776 21.6035 44.5918 21.7463 44.6365C21.889 44.6812 22.0207 44.7554 22.1329 44.8543C22.2451 44.9532 22.3352 45.0745 22.3975 45.2105C22.4598 45.3465 22.4924 45.494 22.494 45.6435C22.4956 45.7931 22.466 45.9413 22.4066 46.0786C22.3473 46.2158 22.2597 46.3391 22.1497 46.4403C22.0396 46.5416 21.9096 46.6186 21.7679 46.6663C21.6261 46.714 21.4759 46.7315 21.327 46.7174C20.663 46.7282 19.9978 46.7263 19.3338 46.7174C18.9026 46.7257 18.4745 46.6469 18.0745 46.4856C17.6745 46.3244 17.3108 46.0841 17.0059 45.7791C16.701 45.4741 16.461 45.1106 16.2999 44.7106C16.1388 44.3105 16.06 43.8821 16.0684 43.4509C16.0517 42.0256 16.0398 40.5984 16.0732 39.1741C16.0948 38.6469 16.0017 38.1212 15.7999 37.6336C15.5982 37.1459 15.2926 36.708 14.9047 36.3502C13.5542 35.0282 13.5526 34.8482 14.8922 33.543C15.2875 33.1788 15.5979 32.7323 15.8019 32.235C16.0058 31.7378 16.098 31.2018 16.0723 30.665C16.0359 29.2987 16.0587 27.9305 16.0646 26.5633C16.0387 26.1074 16.1098 25.6513 16.273 25.2248C16.4363 24.7984 16.688 24.4114 17.0117 24.0894C17.3354 23.7674 17.7236 23.5176 18.1509 23.3566C18.5782 23.1955 19.0347 23.1269 19.4904 23.1551C20.115 23.1551 20.7408 23.1433 21.3654 23.1551C21.5123 23.1471 21.6593 23.1695 21.7972 23.2208C21.935 23.2721 22.0606 23.3512 22.1665 23.4533C22.2724 23.5554 22.3565 23.6781 22.4129 23.814C22.4693 23.9499 22.497 24.0959 22.4945 24.243C22.4917 24.385 22.46 24.525 22.4018 24.6546C22.3437 24.7842 22.2601 24.9007 22.1559 24.9972C22.0517 25.0937 21.9289 25.1682 21.7952 25.2162C21.6616 25.2643 21.5197 25.2849 21.3779 25.2768C20.7336 25.2925 20.0895 25.2699 19.4452 25.2856C19.2779 25.265 19.108 25.283 18.9486 25.3381C18.7893 25.3932 18.6444 25.4841 18.5255 25.6036C18.4066 25.7232 18.3166 25.8684 18.2623 26.0281C18.2081 26.1877 18.1914 26.3577 18.2129 26.525C18.1961 27.7751 18.1715 29.0263 18.2129 30.2745C18.2962 31.1312 18.1864 31.9957 17.8916 32.8045C17.5967 33.6132 17.1245 34.3455 16.5093 34.9476Z" fill="#101010"/>
<path d="M30.0037 42.4347C29.8627 42.436 29.7233 42.4088 29.593 42.3549C29.4628 42.301 29.3447 42.2214 29.2458 42.1209C29.147 42.0204 29.0694 41.901 29.0177 41.7699C28.9659 41.6388 28.9411 41.4986 28.9447 41.3577C28.9447 41.0767 29.0563 40.8073 29.2549 40.6086C29.4536 40.4099 29.7227 40.2983 30.0037 40.2983C30.2846 40.2983 30.5542 40.4099 30.7529 40.6086C30.9516 40.8073 31.0632 41.0767 31.0632 41.3577C31.0667 41.4986 31.0419 41.6388 30.9902 41.7699C30.9384 41.901 30.8609 42.0204 30.762 42.1209C30.6632 42.2214 30.545 42.301 30.4148 42.3549C30.2846 42.4088 30.1446 42.436 30.0037 42.4347Z" fill="#101010"/>
<path d="M25.7097 40.2964C25.994 40.3013 26.2649 40.4172 26.4647 40.6194C26.6645 40.8217 26.7773 41.0941 26.7788 41.3784C26.7749 41.653 26.6654 41.9155 26.4729 42.1113C26.2803 42.3072 26.0198 42.4213 25.7453 42.4298C25.4606 42.4359 25.185 42.3296 24.9783 42.1339C24.7715 41.9382 24.6501 41.6688 24.6406 41.3843C24.6445 41.1002 24.7575 40.8285 24.9566 40.6259C25.1558 40.4232 25.4257 40.3052 25.7097 40.2964Z" fill="#101010"/>
<path d="M35.3633 41.3626C35.3617 41.6473 35.248 41.92 35.0468 42.1214C34.8455 42.3228 34.5731 42.4368 34.2884 42.4386C34.0139 42.4368 33.7504 42.3293 33.5531 42.1384C33.3558 41.9476 33.2398 41.688 33.2289 41.4137C33.2212 41.1294 33.3258 40.8534 33.52 40.6456C33.7142 40.4377 33.9826 40.3148 34.2668 40.3032C34.5509 40.3045 34.8232 40.4154 35.0276 40.6128C35.2319 40.8101 35.3521 41.0787 35.3633 41.3626Z" fill="#101010"/>
<path d="M42.7721 13.5325H31.6426C31.4862 13.5325 31.3308 13.5394 31.1744 13.5325C31.0275 13.5415 30.8805 13.521 30.7416 13.4722C30.6028 13.4235 30.4751 13.3474 30.3661 13.2485C30.2571 13.1495 30.1687 13.0298 30.1067 12.8963C30.0447 12.7628 30.0101 12.6183 30.0049 12.4712C30.0043 12.3241 30.0333 12.1784 30.0904 12.0428C30.1475 11.9073 30.2316 11.7847 30.3372 11.6823C30.4429 11.58 30.5678 11.5 30.7051 11.4473C30.8424 11.3946 30.989 11.3701 31.1359 11.3754C31.2914 11.3636 31.4478 11.3685 31.6052 11.3685C39.1029 11.3685 46.6007 11.3685 54.0984 11.3685C54.352 11.3607 54.6057 11.3778 54.8558 11.4197C55.092 11.4522 55.3077 11.5704 55.4624 11.7517C55.6171 11.9331 55.7 12.165 55.6949 12.4033C55.7182 12.6497 55.6488 12.8959 55.5004 13.0939C55.352 13.2919 55.1353 13.4276 54.8923 13.4744C54.6439 13.5223 54.3907 13.5421 54.1378 13.5335C50.3483 13.5328 46.5596 13.5325 42.7721 13.5325Z" fill="#101010"/>
<path d="M5.34583 11.3813C5.62911 11.3828 5.90069 11.4947 6.10274 11.6933C6.3048 11.8919 6.42149 12.1614 6.42789 12.4446C6.41939 12.7281 6.30215 12.9974 6.10082 13.1971C5.89949 13.3968 5.62932 13.5116 5.34583 13.5177C5.07143 13.511 4.80989 13.399 4.61581 13.2049C4.42172 13.0108 4.30988 12.7495 4.30315 12.4751C4.29733 12.3342 4.31973 12.1936 4.36942 12.0616C4.41911 11.9297 4.49498 11.8091 4.59227 11.707C4.68957 11.6049 4.80623 11.5235 4.93567 11.4675C5.06511 11.4116 5.20482 11.3823 5.34583 11.3813Z" fill="#101010"/>
<path d="M14.9947 12.4644C14.9847 12.7486 14.8644 13.0178 14.659 13.2145C14.4536 13.4112 14.1798 13.5201 13.8954 13.5179C13.7546 13.5119 13.6162 13.4782 13.4886 13.4187C13.3609 13.3591 13.2464 13.2749 13.1514 13.1708C13.0564 13.0668 12.983 12.945 12.9353 12.8124C12.8876 12.6799 12.8665 12.5392 12.8733 12.3985C12.8806 12.124 12.9955 11.8635 13.1937 11.6735C13.3918 11.4834 13.6573 11.3792 13.9319 11.3834C14.0729 11.3838 14.212 11.4122 14.342 11.4668C14.472 11.5215 14.5899 11.6014 14.6888 11.702C14.7877 11.8025 14.8658 11.9217 14.9184 12.0525C14.9709 12.1834 14.9967 12.3234 14.9947 12.4644Z" fill="#101010"/>
<path d="M10.6975 12.4565C10.6966 12.5973 10.668 12.7366 10.613 12.8663C10.558 12.9959 10.4778 13.1134 10.3772 13.212C10.2766 13.3105 10.1573 13.3882 10.0266 13.4405C9.89584 13.4929 9.75627 13.5188 9.61546 13.5169C9.33175 13.5026 9.06431 13.3792 8.86959 13.1724C8.67487 12.9656 8.56796 12.6914 8.57086 12.4074C8.5853 12.1333 8.7035 11.8749 8.90129 11.6846C9.09907 11.4943 9.36167 11.3863 9.63611 11.3824C9.77713 11.3804 9.91718 11.4069 10.0477 11.4603C10.1782 11.5137 10.2963 11.593 10.3954 11.6933C10.4946 11.7936 10.5727 11.9129 10.6245 12.0441C10.6764 12.1753 10.7012 12.3155 10.6975 12.4565Z" fill="#101010"/>
</svg>
