<svg width="60" height="61" viewBox="0 0 60 61" fill="none" xmlns="http://www.w3.org/2000/svg">
<path d="M59.9951 60.0659C59.8672 60.2723 59.6833 60.4382 59.4649 60.5443C59.2465 60.6504 59.0027 60.6924 58.7614 60.6654C39.5847 60.6547 20.4082 60.6514 1.23212 60.6554C1.05721 60.6683 0.880961 60.6596 0.70819 60.6294C0.502285 60.5957 0.316648 60.4857 0.188168 60.3213C0.0596881 60.1569 -0.00206127 59.9502 0.0149896 59.7422C0.0139383 59.5437 0.0848604 59.3514 0.21451 59.201C0.34416 59.0506 0.523833 58.9522 0.720386 58.924C0.93306 58.8932 1.14848 58.8852 1.36285 58.9H21.0886C20.9557 57.6072 20.8307 56.3724 20.6998 55.1375C20.3551 51.8576 19.9922 48.5797 19.6675 45.2977C19.6099 44.9185 19.6373 44.5312 19.748 44.164C19.8587 43.7968 20.0499 43.4588 20.3076 43.1747C20.5652 42.8905 20.8832 42.6673 21.2379 42.5213C21.5925 42.3753 21.9754 42.3101 22.3584 42.3305C23.1756 42.3175 23.9946 42.3305 24.8678 42.3305V37.0914C24.6929 37.1553 24.519 37.2083 24.3531 37.2802C22.6547 38.0155 20.9497 38.7398 19.2583 39.4951C17.9264 40.0142 16.79 40.937 16.0089 42.1341C15.2277 43.3313 14.8407 44.7428 14.902 46.1709C14.881 49.3929 14.902 52.6149 14.902 55.8369C14.9101 56.0125 14.9061 56.1884 14.8893 56.3634C14.8766 56.5715 14.785 56.767 14.6332 56.91C14.4813 57.0529 14.2802 57.1325 14.0717 57.1327C13.8738 57.1534 13.6753 57.1003 13.5141 56.9836C13.353 56.8669 13.2405 56.6948 13.1985 56.5003C13.1538 56.3105 13.1366 56.1154 13.1468 55.9208C13.1468 52.6598 13.1116 49.3979 13.1536 46.1379C13.0907 44.3749 13.5758 42.6358 14.542 41.1598C15.5081 39.6837 16.9081 38.5434 18.549 37.8956C19.9866 37.2482 21.4382 36.6318 22.9867 35.9564C22.7599 35.8485 22.6198 35.7736 22.475 35.7147C21.4558 35.3078 20.5452 34.6693 19.8154 33.8498C19.0855 33.0302 18.5564 32.052 18.2699 30.9927C17.9834 29.9333 17.9473 28.8218 18.1646 27.7461C18.3818 26.6704 18.8465 25.66 19.5217 24.7948C21.2099 22.7895 22.0774 20.2198 21.9496 17.6016C21.8797 16.5879 21.8824 15.5706 21.9584 14.5574C22.0317 13.2162 22.226 11.8844 22.5389 10.5781C23.2896 7.99383 24.7836 5.68719 26.8347 3.94501C28.8858 2.20283 31.4033 1.10196 34.075 0.779266C34.2059 0.754011 34.3348 0.71826 34.4599 0.672363H37.0376C37.4562 0.750291 37.8726 0.835213 38.2923 0.905148C41.0437 1.41033 43.5743 2.74648 45.5433 4.7337C47.5123 6.72091 48.8251 9.26374 49.3049 12.0198C49.5387 13.9753 49.6184 15.9462 49.543 17.9143C49.4604 20.4123 50.2888 22.8553 51.8738 24.7879C52.8168 25.9753 53.3461 27.438 53.3822 28.9539C53.4182 30.4698 52.9588 31.9561 52.0733 33.187C51.1883 34.4482 49.9259 35.3958 48.4678 35.8935C49.9664 36.5369 51.374 37.1134 52.7578 37.7348C54.4299 38.383 55.8573 39.5383 56.8399 41.0386C57.8224 42.5389 58.3107 44.3091 58.2365 46.101C58.2595 50.1422 58.2365 54.1844 58.2365 58.2256V58.897C58.9359 58.883 59.6125 58.7791 59.9942 59.4795L59.9951 60.0659ZM22.8579 58.8621H49.3742C49.4004 58.8007 49.4206 58.7372 49.4357 58.6722C49.9052 54.2677 50.3737 49.8628 50.8406 45.4576C50.9555 44.3676 50.6857 44.0798 49.5927 44.0798H33.0145C29.5384 44.0798 26.0626 44.0798 22.5872 44.0798C21.6181 44.0798 21.3491 44.3666 21.432 45.3137C21.5029 46.1299 21.5949 46.9452 21.6808 47.7594C22.0694 51.447 22.4609 55.1335 22.8555 58.8621H22.8579ZM43.7491 5.49086C41.9431 8.34345 39.5508 10.7791 36.7312 12.6362C33.9116 14.4932 30.7296 15.7291 27.3957 16.2618C27.3957 18.6596 27.3434 21.0214 27.4084 23.3782C27.4381 24.8582 27.9677 26.2847 28.9109 27.4256C29.8541 28.5665 31.1557 29.3548 32.6037 29.6623C34.3565 29.9197 36.1326 29.9786 37.8986 29.8381C38.7604 29.7828 39.6009 29.5472 40.366 29.1468C41.1311 28.7463 41.804 28.1899 42.3407 27.5133C43.1126 26.6438 43.6327 25.5803 43.8452 24.4372C42.921 25.0366 42.0529 25.5941 41.2016 26.1726C40.9836 26.3129 40.8028 26.5038 40.6743 26.729C40.5033 27.1381 40.2247 27.4933 39.8684 27.7571C39.5121 28.0209 39.091 28.1834 38.6498 28.2276C37.719 28.3101 36.7826 28.3054 35.8526 28.2137C35.2247 28.1335 34.6508 27.8179 34.2467 27.3307C33.8426 26.8435 33.6382 26.221 33.6755 25.5891C33.7023 24.9494 33.9679 24.3429 34.4199 23.8894C34.8719 23.4359 35.4779 23.1683 36.1175 23.1394C36.6051 23.1164 37.0955 23.1534 37.581 23.1224C38.1675 23.0154 38.7727 23.0924 39.3138 23.3428C39.8548 23.5932 40.3051 24.0047 40.6031 24.5211C41.9414 23.9129 43.0336 22.8681 43.7003 21.5579C43.8807 21.1749 43.9806 20.7591 43.994 20.336C44.0319 19.1461 43.9939 17.9542 44.0159 16.7633C44.0239 16.3507 43.9283 16.1459 43.4847 16.043C42.1892 15.7385 40.9695 15.1717 39.9016 14.3776C39.3421 13.966 39.2023 13.4784 39.5021 13.0378C39.8138 12.5773 40.3142 12.6032 40.9426 12.9459C41.8481 13.4733 42.7977 13.9216 43.7803 14.2857C45.0541 14.7244 46.4191 14.8276 47.7444 14.5854C47.7809 12.8698 47.4421 11.167 46.7516 9.59603C46.0612 8.0251 45.0357 6.62402 43.7471 5.49086H43.7491ZM42.3744 4.44584C40.3651 3.11009 38.0009 2.40961 35.5882 2.43544C33.1756 2.46128 30.8262 3.21223 28.846 4.5907C25.2543 7.08837 23.4511 11.5182 23.8048 14.6553C31.8563 14.6583 37.8586 10.9887 42.3724 4.44584H42.3744ZM56.4472 58.873C56.4613 58.796 56.4716 58.7183 56.4774 58.6403C56.4774 54.2853 56.5364 49.9304 56.4535 45.5765C56.4674 44.3423 56.1238 43.1305 55.4647 42.087C54.8057 41.0434 53.8591 40.2127 52.7387 39.6949C50.7556 38.7009 48.6698 37.9126 46.6277 37.0364C46.6018 37.0254 46.5585 37.0554 46.5136 37.0704V42.3215C47.5996 42.3215 48.6505 42.3215 49.7015 42.3215C50.1184 42.2709 50.5415 42.3206 50.9352 42.4664C51.329 42.6122 51.6821 42.85 51.9655 43.1598C52.2489 43.4697 52.4544 43.8428 52.5646 44.248C52.6747 44.6532 52.6862 45.0788 52.5987 45.4895C52.2481 48.9863 51.8547 52.475 51.4831 55.9678C51.3832 56.9269 51.2912 57.887 51.1923 58.872L56.4472 58.873ZM31.8525 31.3937C31.6251 32.3685 31.1576 33.2711 30.4924 34.0191C29.8272 34.7671 28.9856 35.337 28.044 35.6767C26.6563 36.2412 26.6873 36.2681 26.6693 37.8067C26.6643 38.2493 26.8208 38.4061 27.2245 38.506C29.6277 39.1202 32.092 39.464 34.5716 39.5311C37.8544 39.614 41.1308 39.1997 44.2896 38.3022C44.3551 38.2947 44.4184 38.2742 44.4759 38.2421C44.5335 38.2099 44.5844 38.1667 44.6252 38.1149C44.666 38.063 44.6958 38.0036 44.7135 37.9401C44.7312 37.8766 44.7362 37.8102 44.7281 37.7448C44.7591 36.2272 44.7704 36.2282 43.4037 35.6397C43.1709 35.5398 42.9349 35.4449 42.7042 35.333C41.9958 34.9996 41.3642 34.5234 40.8485 33.9345C40.3327 33.3455 39.944 32.6563 39.7069 31.9102C39.648 31.7314 39.5819 31.5545 39.5269 31.3977C36.9858 31.8259 34.3912 31.8246 31.8505 31.3937H31.8525ZM23.7716 16.3837C23.7387 16.4476 23.7077 16.4836 23.7067 16.5146C23.6988 16.9042 23.6751 17.2958 23.695 17.6845C23.8408 20.6398 22.8588 23.5401 20.9476 25.7989C20.117 26.8279 19.701 28.1302 19.7812 29.4501C19.8614 30.7701 20.4322 32.0124 21.3813 32.9333C22.3575 33.8615 23.6345 34.4083 24.98 34.4743C26.3254 34.5403 27.6499 34.1211 28.7123 33.2929C29.4045 32.7394 29.8931 31.9715 30.1012 31.11C30.1504 30.9845 30.1498 30.8449 30.0997 30.7198C30.0496 30.5947 29.9536 30.4934 29.8314 30.4366C28.5013 29.6576 27.4075 28.5322 26.6669 27.1804C25.9263 25.8285 25.5668 24.301 25.6263 22.7607C25.6313 20.8485 25.6263 18.9353 25.6263 17.0231V16.3847L23.7716 16.3837ZM45.7736 16.4446V17.155C45.7736 19.0532 45.7865 20.9434 45.7736 22.8367C45.8147 24.3585 45.4481 25.8636 44.7125 27.1964C43.9769 28.5293 42.8985 29.6413 41.589 30.4176C41.2393 30.6384 41.2513 30.8452 41.3182 31.1849C41.6709 32.9722 44.1556 34.5977 46.3136 34.4638C47.3267 34.4664 48.3186 34.1727 49.1669 33.6188C50.0152 33.065 50.6832 32.2752 51.0884 31.3467C51.5477 30.4409 51.7242 29.418 51.5953 28.4107C51.4663 27.4033 51.0376 26.4579 50.365 25.697C48.6198 23.6086 47.7065 20.9499 47.7995 18.23C47.8145 17.6305 47.7995 17.0311 47.7995 16.4436L45.7736 16.4446ZM44.6823 40.0226C41.7503 40.8414 38.7239 41.2724 35.6799 41.3044C32.6582 41.3192 29.6467 40.9499 26.7181 40.2055V42.2905H44.6823V40.0226ZM37.2512 26.5152C37.6209 26.5152 37.9925 26.5442 38.3571 26.5083C38.4609 26.5078 38.5636 26.4861 38.6586 26.4446C38.7537 26.4031 38.839 26.3426 38.9098 26.2668C38.9807 26.191 39.0353 26.1015 39.0703 26.0039C39.1053 25.9063 39.1203 25.8025 39.1138 25.699C39.12 25.5908 39.1027 25.4825 39.0635 25.3814C39.0243 25.2804 38.964 25.1889 38.8864 25.1131C38.8089 25.0374 38.7157 24.9791 38.6137 24.9423C38.5118 24.9055 38.4032 24.891 38.2952 24.8998C37.6148 24.8868 36.9345 24.8898 36.2541 24.8998C36.1511 24.8941 36.0478 24.9091 35.9507 24.944C35.8536 24.9788 35.7647 25.0327 35.6887 25.1025C35.6128 25.1724 35.5516 25.2567 35.5087 25.3506C35.4658 25.4444 35.442 25.5459 35.439 25.6491C35.4303 25.7563 35.4435 25.8642 35.4775 25.9663C35.5115 26.0684 35.5657 26.1625 35.637 26.2431C35.7083 26.3237 35.795 26.3891 35.8921 26.4354C35.9893 26.4816 36.0949 26.5078 36.2024 26.5122C36.5512 26.5305 36.9005 26.5301 37.2493 26.5112L37.2512 26.5152Z" fill="#101010"/>
<path d="M11.2507 0.660156C11.8372 0.794031 12.4324 0.896933 13.0089 1.06578C14.6713 1.54566 16.1844 2.44094 17.4051 3.66724C18.6259 4.89355 19.514 6.41048 19.9862 8.07509C20.4585 9.73969 20.4991 11.4971 20.1043 13.1818C19.7095 14.8664 18.8923 16.4228 17.7295 17.7042C17.6296 17.8181 17.5297 17.937 17.3988 18.0929C17.7884 18.3287 18.1563 18.5425 18.514 18.7722C18.7615 18.8971 18.9571 19.1051 19.0667 19.3597C19.1763 19.6143 19.1929 19.8994 19.1135 20.165C19.0435 20.4327 18.8815 20.6672 18.6559 20.8274C18.4303 20.9876 18.1551 21.0633 17.8793 21.0411C15.1818 21.0471 12.4895 21.1001 9.79799 21.0252C7.27787 20.9027 4.89035 19.8599 3.08794 18.0943C1.28553 16.3287 0.193429 13.9631 0.0190277 11.4461C-0.124319 8.8957 0.69372 6.38421 2.31132 4.40725C3.92892 2.43028 6.22868 1.13145 8.75697 0.767059C8.88873 0.740475 9.01873 0.705093 9.14576 0.661155L11.2507 0.660156ZM15.7124 19.3837C15.095 18.3037 15.1472 17.7852 15.9485 17.0069C16.0054 16.9529 16.0614 16.899 16.1163 16.844C17.3788 15.605 18.2165 13.9981 18.5096 12.2536C18.8027 10.5092 18.5359 8.71668 17.7476 7.13311C16.9623 5.53726 15.6925 4.23069 14.1196 3.40037C12.5468 2.57006 10.7513 2.25855 8.99063 2.51043C7.06275 2.78739 5.2903 3.72298 3.97383 5.15837C2.65736 6.59376 1.87799 8.44049 1.76837 10.3851C1.63068 12.3833 2.22726 14.363 3.44552 15.9528C4.66377 17.5427 6.42002 18.6333 8.38524 19.02C10.8176 19.2942 13.2648 19.4157 15.7124 19.3837Z" fill="#101010"/>
<path d="M36.1443 54.8095C35.2595 54.8095 34.4109 54.458 33.7852 53.8323C33.1595 53.2066 32.8081 52.358 32.8081 51.4731C32.8081 50.5882 33.1595 49.7396 33.7852 49.1139C34.4109 48.4882 35.2595 48.1367 36.1443 48.1367C37.0211 48.149 37.8589 48.502 38.4801 49.1208C39.1012 49.7397 39.4568 50.576 39.4723 51.4526C39.4748 51.8917 39.391 52.327 39.225 52.7335C39.059 53.14 38.8141 53.5098 38.5049 53.8216C38.1958 54.1334 37.8285 54.3812 37.4234 54.5507C37.0184 54.7202 36.5834 54.8082 36.1443 54.8095ZM36.1546 53.0491C36.5692 53.0429 36.9645 52.8742 37.2561 52.5794C37.5477 52.2846 37.7124 51.8872 37.7142 51.4726C37.704 51.0577 37.5342 50.6626 37.2405 50.3695C36.9467 50.0763 36.5515 49.9075 36.1365 49.8981C35.9264 49.9009 35.7188 49.9452 35.5258 50.0283C35.3328 50.1114 35.1585 50.2318 35.0121 50.3825C34.8657 50.5332 34.7501 50.7112 34.6726 50.9065C34.595 51.1018 34.5567 51.3105 34.5599 51.5206C34.5632 51.7262 34.6073 51.9291 34.6897 52.1175C34.772 52.306 34.8908 52.4762 35.0394 52.6184C35.188 52.7605 35.3637 52.8718 35.5555 52.9458C35.7474 53.0197 35.952 53.0548 36.1575 53.0491H36.1546Z" fill="#101010"/>
<path d="M6.67413 11.713C6.55727 11.715 6.441 11.6928 6.33313 11.6478C6.22527 11.6028 6.12806 11.536 6.04727 11.4516C5.96648 11.3671 5.90402 11.2669 5.86385 11.1571C5.82368 11.0474 5.80642 10.9305 5.8136 10.8138C5.81858 10.5886 5.91301 10.3745 6.07556 10.2185C6.23812 10.0625 6.4557 9.97731 6.68095 9.9816C6.79768 9.97972 6.91376 10.002 7.02146 10.0471C7.12915 10.0921 7.22623 10.159 7.30684 10.2434C7.38744 10.3279 7.44977 10.4281 7.48977 10.5378C7.52977 10.6475 7.54636 10.7642 7.53904 10.8808C7.53816 10.9926 7.51495 11.1031 7.47074 11.2059C7.42654 11.3086 7.36256 11.4015 7.28196 11.479C7.20135 11.5565 7.10583 11.6172 7.00146 11.6574C6.89708 11.6975 6.78591 11.7165 6.67413 11.713Z" fill="#101010"/>
<path d="M11.0538 10.8448C11.0575 10.9564 11.0394 11.0675 10.9996 11.1718C10.9599 11.2761 10.8996 11.3714 10.8225 11.4521C10.7455 11.5329 10.6531 11.5975 10.5508 11.6421C10.4485 11.6867 10.3385 11.7105 10.2269 11.712C10.1106 11.7192 9.99393 11.7023 9.88445 11.6623C9.77498 11.6224 9.67468 11.5603 9.59029 11.48C9.5059 11.3996 9.43942 11.3027 9.39419 11.1953C9.34895 11.0879 9.3259 10.9723 9.32735 10.8558C9.32479 10.7393 9.34632 10.6235 9.39028 10.5156C9.43425 10.4077 9.49973 10.3099 9.58297 10.2283C9.66622 10.1468 9.7654 10.0832 9.87421 10.0414C9.98301 9.99967 10.0993 9.98068 10.2157 9.98563C10.3273 9.98641 10.4379 10.0093 10.5406 10.053C10.6433 10.0967 10.7363 10.1604 10.8142 10.2403C10.8922 10.3202 10.9536 10.4148 10.9947 10.5185C11.0359 10.6223 11.0558 10.7332 11.0538 10.8448Z" fill="#101010"/>
<path d="M12.844 10.8049C12.8486 10.6886 12.8771 10.5744 12.9274 10.4694C12.9778 10.3645 13.0493 10.2709 13.1372 10.1945C13.2251 10.1182 13.3272 10.0606 13.4382 10.0254C13.5492 9.99013 13.6663 9.97798 13.7821 9.98966C13.8935 9.997 14.0022 10.0263 14.1021 10.0759C14.2021 10.1255 14.2914 10.1945 14.3646 10.2787C14.4378 10.3629 14.4938 10.4609 14.529 10.5668C14.5641 10.6727 14.5778 10.7845 14.5695 10.8958C14.5662 11.0123 14.5388 11.1269 14.489 11.2322C14.4391 11.3376 14.3682 11.4315 14.2802 11.5079C14.1922 11.5844 14.089 11.6417 13.9777 11.6763C13.8664 11.711 13.7492 11.7221 13.6333 11.7091C13.5219 11.7021 13.4129 11.6731 13.3128 11.6238C13.2127 11.5744 13.1233 11.5057 13.0499 11.4217C12.9765 11.3376 12.9208 11.2398 12.8855 11.1339C12.8501 11.028 12.8359 10.9162 12.844 10.8049Z" fill="#101010"/>
</svg>
