<svg width="168" height="33" viewBox="0 0 168 33" fill="none" xmlns="http://www.w3.org/2000/svg">
<g clip-path="url(#clip0_1_1613)">
<g clip-path="url(#clip1_1_1613)">
<g clip-path="url(#clip2_1_1613)">
<path d="M52.5918 16.7479C52.5918 13.4679 55.176 10.9831 58.5553 10.9831C61.9347 10.9831 64.5188 13.3685 64.5188 16.7479C64.5188 20.1272 61.9347 22.5126 58.5553 22.5126C55.176 22.5126 52.5918 20.0278 52.5918 16.7479ZM62.531 16.7479C62.531 14.4618 60.8413 12.8716 58.6547 12.8716C56.4681 12.8716 54.7784 14.4618 54.7784 16.7479C54.7784 19.0339 56.4681 20.6242 58.6547 20.6242C60.8413 20.6242 62.531 19.0339 62.531 16.7479Z" fill="#101010"/>
<path d="M79.8254 11.1819V22.3138H78.1358L71.9735 14.76V22.3138H69.8862V11.1819H71.5759L77.7382 18.7357V11.1819C77.8376 11.1819 79.8254 11.1819 79.8254 11.1819Z" fill="#101010"/>
<path d="M94.3362 20.6242V22.4132H85.9873V11.1819H94.1375V12.971H88.0745V15.8533H93.4417V17.543H88.0745V20.6242H94.3362Z" fill="#101010"/>
<path d="M103.68 17.6424L101.89 19.4315V22.3138H99.8032V11.1819H101.89V16.9467L107.357 11.1819H109.643L104.972 16.1515L109.941 22.3138H107.556L103.68 17.6424Z" fill="#101010"/>
<path d="M113.42 16.7479C113.42 13.4679 116.004 10.9831 119.383 10.9831C122.763 10.9831 125.347 13.3685 125.347 16.7479C125.347 20.1272 122.763 22.5126 119.383 22.5126C116.004 22.5126 113.42 20.0278 113.42 16.7479ZM123.359 16.7479C123.359 14.4618 121.669 12.8716 119.483 12.8716C117.296 12.8716 115.607 14.4618 115.607 16.7479C115.607 19.0339 117.296 20.6242 119.483 20.6242C121.669 20.7235 123.359 19.0339 123.359 16.7479Z" fill="#101010"/>
<path d="M138.069 22.3138L135.783 19.0339C135.684 19.0339 135.485 19.0339 135.386 19.0339H132.901V22.3138H130.813V11.1819H135.386C138.367 11.1819 140.156 12.6728 140.156 15.1576C140.156 16.8473 139.262 18.04 137.771 18.6363L140.355 22.3138H138.069ZM135.286 12.971H132.901V17.4436H135.286C137.075 17.4436 138.069 16.6485 138.069 15.257C138.069 13.7661 137.075 12.971 135.286 12.971Z" fill="#101010"/>
<path d="M144.629 21.2205L145.325 19.6302C146.219 20.326 147.611 20.8229 149.002 20.8229C150.791 20.8229 151.487 20.2266 151.487 19.3321C151.487 16.9467 144.828 18.5369 144.828 14.3625C144.828 12.5734 146.219 11.0825 149.3 11.0825C150.592 11.0825 152.083 11.3807 152.978 12.0764L152.282 13.6667C151.288 13.0704 150.195 12.7722 149.201 12.7722C147.511 12.7722 146.816 13.4679 146.816 14.2631C146.816 16.6485 153.375 15.0582 153.375 19.2327C153.375 21.0217 151.885 22.5126 148.903 22.5126C147.312 22.5126 145.623 22.0157 144.629 21.2205Z" fill="#101010"/>
<path d="M167.191 20.6242V22.4132H158.842V11.1819H166.992V12.971H160.929V15.8533H166.296V17.543H160.929V20.6242H167.191Z" fill="#101010"/>
<path d="M35.8941 16.0521L29.7318 5.41717C29.533 5.119 29.2348 4.92021 28.9367 4.92021H23.7683L24.7622 2.13723C24.961 1.64027 24.6628 1.14331 24.1658 0.944529C23.6689 0.745745 23.1719 1.04392 22.9731 1.44149L13.9285 26.0907H8.56129L2.99533 16.3503L8.56129 6.60988H14.1272C14.6242 6.60988 15.0218 6.21231 15.0218 5.71535C15.0218 5.21839 14.6242 4.82082 14.1272 4.82082H7.96493C7.66676 4.82082 7.36858 5.0196 7.16979 5.31778L1.00749 15.9527C0.808702 16.2509 0.808702 16.5491 1.00749 16.8473L7.16979 27.4822C7.36858 27.7804 7.66676 27.9792 7.96493 27.9792H13.1333L12.1394 30.7622C11.9406 31.2591 12.2388 31.7561 12.7358 31.9549C13.2327 32.1536 13.7297 31.8555 13.9285 31.3585L22.9731 6.70927H28.3403L33.9063 16.3503L28.3403 26.0907H22.7743C22.2774 26.0907 21.8798 26.4883 21.8798 26.9853C21.8798 27.4822 22.2774 27.8798 22.7743 27.8798H28.9367C29.2348 27.8798 29.533 27.681 29.7318 27.3828L35.8941 16.7479C36.3911 16.7479 36.7886 16.8473 36.7886 16.2509C36.7886 15.6546 36.3911 15.5552 35.8941 16.0521Z" fill="url(#paint0_linear_1_1613)"/>
</g>
</g>
</g>
<defs>
<linearGradient id="paint0_linear_1_1613" x1="18.9428" y1="0.977073" x2="18.9428" y2="32.0539" gradientUnits="userSpaceOnUse">
<stop stop-color="#FEC983"/>
<stop offset="1" stop-color="#FF7B7B"/>
</linearGradient>
<clipPath id="clip0_1_1613">
<rect width="168" height="32.7" fill="white" transform="translate(0 0.0499878)"/>
</clipPath>
<clipPath id="clip1_1_1613">
<rect width="168" height="32.7" fill="white" transform="translate(0 0.0499878)"/>
</clipPath>
<clipPath id="clip2_1_1613">
<rect width="167.973" height="32.7" fill="white" transform="translate(0.0136719 0.0499878)"/>
</clipPath>
</defs>
</svg>
