<svg width="61" height="61" viewBox="0 0 61 61" fill="none" xmlns="http://www.w3.org/2000/svg">
<path d="M29.9981 50.6701C21.3652 50.6701 12.7337 50.6701 4.10338 50.6701C3.20839 50.7477 2.31504 50.5023 1.58533 49.9784C0.855608 49.4544 0.337739 48.6865 0.125169 47.8137C0.0413183 47.4212 0.00435728 47.0201 0.0158162 46.6189C0.0098174 35.1499 0.0098174 23.6809 0.0158162 12.2118C-0.0318207 11.6708 0.0394634 11.1259 0.224759 10.6154C0.410054 10.1049 0.704796 9.64109 1.08836 9.25658C1.47192 8.87206 1.93544 8.57615 2.44551 8.38958C2.95557 8.20302 3.50025 8.13034 4.04138 8.17663C10.0722 8.17663 16.1039 8.17663 22.1374 8.17663C22.3278 8.16938 22.5189 8.17506 22.7085 8.19363C22.9934 8.23759 23.254 8.37904 23.4462 8.59382C23.6384 8.80861 23.7499 9.08344 23.762 9.37139C23.7715 9.65951 23.6792 9.94172 23.5009 10.1682C23.3225 10.3947 23.07 10.5508 22.7876 10.6091C22.4947 10.6517 22.1984 10.6681 21.9026 10.6581C16.0624 10.6581 10.2223 10.6581 4.38213 10.6581C2.85544 10.6581 2.49969 11.0081 2.49969 12.5088C2.49969 23.7872 2.49969 35.0656 2.49969 46.344C2.49969 47.8077 2.87035 48.1756 4.34405 48.1756H55.701C57.1547 48.1756 57.5253 47.7997 57.5253 46.323V26.263C57.5253 26.0301 57.5194 25.7961 57.5414 25.5632C57.5579 25.2537 57.6935 24.9627 57.9198 24.751C58.146 24.5393 58.4452 24.4233 58.755 24.4274C58.9138 24.4229 59.0719 24.4497 59.2203 24.5064C59.3687 24.563 59.5048 24.6484 59.6201 24.7577C59.7355 24.8669 59.8278 24.9978 59.8925 25.1429C59.9572 25.2879 59.9928 25.4444 59.997 25.6031C60.008 25.7291 60.0058 25.8571 60.0058 25.9841C60.0058 32.8827 60.0058 39.7813 60.0058 46.6799C60.0656 47.5431 59.821 48.3999 59.3145 49.1013C58.808 49.8028 58.0715 50.3045 57.2334 50.5192C56.7383 50.6287 56.2318 50.6767 55.7249 50.6621C47.1439 50.6715 38.5684 50.6741 29.9981 50.6701Z" fill="#101010"/>
<path d="M27.7905 25.6123C27.954 25.0972 28.1461 24.5915 28.3656 24.0976C28.6197 23.6587 28.8974 23.2338 29.1974 22.8249C29.2913 22.6855 29.349 22.525 29.3658 22.3578C29.3826 22.1906 29.3578 22.0218 29.2936 21.8665C29.2294 21.7112 29.1278 21.5742 28.9978 21.4677C28.8677 21.3612 28.713 21.2886 28.5481 21.2562C28.0112 21.1432 27.4675 21.0562 26.9376 20.9143C26.3959 20.7914 25.9117 20.4891 25.5634 20.0565C25.2151 19.6238 25.0233 19.0861 25.0191 18.5307C24.9904 17.4529 24.9904 16.3745 25.0191 15.2954C25.0258 14.7188 25.2327 14.1624 25.6039 13.7211C25.9751 13.2799 26.4878 12.9811 27.0548 12.8759C27.4667 12.7819 27.8813 12.7039 28.2962 12.6239C29.38 12.4159 29.7141 11.6861 29.0593 10.8053C27.3796 8.54972 27.5718 7.37896 29.5924 5.58531C30.0193 5.20739 30.399 4.77648 30.8079 4.37856C31.2278 3.93651 31.7919 3.6594 32.3984 3.59742C33.0049 3.53543 33.6138 3.69265 34.1144 4.04063C34.4713 4.26658 34.8139 4.50953 35.1689 4.74048C36.0397 5.32137 36.7516 5.01843 36.9586 3.97763C37.0585 3.50173 37.1266 3.01883 37.2485 2.54992C37.3796 2.0324 37.6744 1.57101 38.0887 1.23434C38.503 0.89767 39.015 0.703708 39.5484 0.681297C40.6891 0.646304 41.8337 0.644304 42.9735 0.681297C43.4963 0.701768 43.9987 0.889941 44.4063 1.21799C44.8139 1.54605 45.1054 1.99656 45.2372 2.50293C45.3971 3.09281 45.491 3.70269 45.6189 4.30257C45.664 4.44697 45.7407 4.57962 45.843 4.69107C45.9453 4.80252 46.0706 4.89002 46.2106 4.94732C46.3506 5.00462 46.5018 5.0303 46.6529 5.02255C46.804 5.01479 46.9511 4.97379 47.0845 4.90245C47.5284 4.61551 47.9596 4.30857 48.4065 4.02663C48.8901 3.69184 49.4753 3.53632 50.0614 3.58687C50.6475 3.63743 51.1976 3.8909 51.6168 4.30357C52.3866 5.02743 53.1336 5.77927 53.8605 6.54612C54.2609 6.96027 54.5084 7.49825 54.5629 8.07177C54.6174 8.6453 54.4755 9.22032 54.1602 9.70249C53.9292 10.0804 53.6734 10.4443 53.4274 10.8143C52.8346 11.7071 53.1274 12.4079 54.1812 12.6139C54.5751 12.6909 54.9702 12.7659 55.3611 12.8539C55.9634 12.9493 56.5112 13.2581 56.9048 13.724C57.2983 14.1898 57.5113 14.7816 57.5047 15.3914C57.5367 16.4052 57.5377 17.4229 57.5047 18.4367C57.506 19.0357 57.2973 19.6161 56.915 20.0771C56.5327 20.5381 56.0007 20.8506 55.4119 20.9602C55.001 21.0602 54.5843 21.1322 54.1714 21.2182C53.1156 21.4371 52.8407 22.118 53.4416 23.0178C53.6885 23.3868 53.9414 23.7507 54.1734 24.1296C54.4864 24.6139 54.6256 25.1902 54.5678 25.764C54.5101 26.3378 54.2584 26.8748 53.8551 27.287C53.1432 28.0388 52.4067 28.7697 51.6558 29.4865C51.2404 29.9017 50.6945 30.1609 50.1102 30.2202C49.5259 30.2796 48.9389 30.1356 48.4484 29.8125C48.0895 29.5905 47.7415 29.3496 47.3886 29.1126C46.4588 28.4957 45.7752 28.7707 45.5462 29.8565C45.4542 30.2904 45.3842 30.7293 45.2753 31.1562C45.1541 31.72 44.8437 32.2256 44.396 32.5892C43.9484 32.9528 43.39 33.1527 42.8133 33.1558C41.7786 33.1878 40.7409 33.1858 39.7051 33.1558C39.1175 33.1546 38.5487 32.9496 38.0955 32.5756C37.6424 32.2016 37.3333 31.6819 37.2207 31.1052C37.1207 30.6733 37.0436 30.2364 36.9556 29.8055C36.7497 28.7907 36.0378 28.4937 35.1869 29.0656C34.801 29.3246 34.4211 29.5955 34.0221 29.8335C33.5468 30.1416 32.9814 30.2797 32.4175 30.2253C31.8536 30.1708 31.3244 29.927 30.9168 29.5335C30.1134 28.8131 29.3539 28.0452 28.6424 27.234C28.2976 26.7276 28.0118 26.1835 27.7905 25.6123ZM52.0678 8.34076L49.7499 6.18719C49.0901 6.61211 48.3575 7.07201 47.6356 7.54992C47.4106 7.70886 47.1449 7.80034 46.8697 7.81362C46.5945 7.8269 46.321 7.76144 46.0817 7.62491C45.5128 7.34996 44.922 7.11801 44.3292 6.89906C44.0754 6.8205 43.8487 6.67232 43.675 6.47136C43.5013 6.2704 43.3875 6.02473 43.3464 5.76228C43.2125 5.05642 43.0972 4.34556 42.9193 3.6517C42.8814 3.54859 42.8197 3.45608 42.7387 3.38196C42.6576 3.30784 42.5596 3.25428 42.4536 3.22579C41.6736 3.16503 40.8911 3.14867 40.1093 3.1768C40.0044 3.20238 39.9073 3.25292 39.8261 3.32412C39.745 3.39531 39.6821 3.48506 39.6431 3.58571C39.4431 4.31757 39.2932 5.06442 39.1432 5.80927C39.0987 6.06012 38.9865 6.29391 38.8181 6.48506C38.6496 6.67621 38.4315 6.81736 38.1883 6.89305C37.608 7.09137 37.0406 7.3251 36.4889 7.59292C36.2162 7.75642 35.8994 7.83141 35.5824 7.8076C35.2653 7.78379 34.9635 7.66234 34.7183 7.45994C34.0564 6.98304 33.3614 6.55312 32.6635 6.09121L30.5131 8.39075C30.953 9.07562 31.4278 9.82346 31.9127 10.5633C32.0579 10.7725 32.1431 11.0175 32.1587 11.2717C32.1744 11.5259 32.1199 11.7796 32.0015 12.005C31.7306 12.5989 31.4767 13.2048 31.2478 13.8147C31.1718 14.0688 31.026 14.2965 30.827 14.4718C30.6279 14.6472 30.3837 14.7631 30.122 14.8065C29.2772 14.9674 28.4352 15.1494 27.5483 15.3324V18.4567C28.3712 18.6347 29.2123 18.8277 30.0561 18.9966C30.3395 19.0395 30.6043 19.1635 30.8187 19.3537C31.033 19.5439 31.1877 19.7922 31.2639 20.0684C31.4331 20.6127 31.6492 21.1412 31.9098 21.6481C32.0826 21.9278 32.1626 22.255 32.1387 22.5829C32.1148 22.9109 31.988 23.223 31.7765 23.4747C31.3086 24.1196 30.886 24.7995 30.4101 25.5143L32.7533 27.6309C33.3872 27.225 34.1371 26.7541 34.8769 26.2652C35.0918 26.11 35.3466 26.0193 35.6112 26.0037C35.8757 25.9882 36.1392 26.0483 36.3708 26.1772C36.9399 26.454 37.524 26.6986 38.1204 26.9101C38.3952 26.9897 38.6403 27.1486 38.8254 27.3667C39.0105 27.5849 39.1274 27.8527 39.1612 28.1368C39.3042 28.9636 39.4949 29.7815 39.6709 30.6263H42.7924C42.9733 29.8015 43.1745 28.9836 43.3254 28.1578C43.3651 27.8527 43.4956 27.5667 43.7004 27.3372C43.9051 27.1076 44.1746 26.9452 44.4732 26.8711C44.9987 26.7131 45.5077 26.5045 45.9929 26.2482C46.2724 26.0745 46.6 25.9942 46.9282 26.019C47.2565 26.0438 47.5684 26.1724 47.8187 26.3862C48.4636 26.8541 49.1415 27.277 49.8373 27.7409L51.9829 25.4244C51.562 24.7695 51.0877 24.0246 50.6018 23.2828C50.446 23.0683 50.3552 22.8136 50.3402 22.5489C50.3251 22.2842 50.3864 22.0208 50.5169 21.7901C50.791 21.2433 51.0275 20.6784 51.2247 20.0994C51.3041 19.8025 51.4719 19.5367 51.7056 19.3371C51.9393 19.1375 52.2279 19.0135 52.5336 18.9816C53.2004 18.8767 53.8641 18.7417 54.52 18.5817C54.685 18.5417 54.9382 18.3628 54.9432 18.2398C54.9792 17.274 54.9633 16.3062 54.9633 15.3254C54.0834 15.1454 53.2365 14.9594 52.3856 14.8015C52.1235 14.7627 51.8781 14.6496 51.6783 14.4756C51.4784 14.3016 51.3325 14.074 51.2579 13.8197C51.0536 13.2207 50.8127 12.6347 50.5369 12.065C50.3928 11.8181 50.3261 11.5336 50.3455 11.2484C50.365 10.9632 50.4695 10.6904 50.6458 10.4653C51.1197 9.79047 51.5649 9.09561 52.0678 8.34076Z" fill="#101010"/>
<path d="M35.0151 39.4205C40.3473 39.4205 45.6796 39.4205 51.0119 39.4205C51.8797 39.4205 52.3974 39.8104 52.4764 40.5033C52.5236 40.8102 52.4499 41.1235 52.2709 41.3772C52.0919 41.631 51.8216 41.8055 51.5166 41.864C51.2459 41.9099 50.9709 41.9283 50.6965 41.919C40.2213 41.919 29.7467 41.919 19.2721 41.919H19.1452C18.0814 41.913 17.5152 41.4781 17.5142 40.6632C17.5132 39.8484 18.0744 39.4175 19.1432 39.4175L35.0151 39.4205Z" fill="#101010"/>
<path d="M34.9889 58.133C34.9889 56.9113 34.9693 55.7335 34.9962 54.5507C34.9799 54.3762 35 54.2003 35.0558 54.0342C35.1116 53.868 35.2016 53.7154 35.3199 53.5861C35.4382 53.4568 35.5822 53.3537 35.7427 53.2834C35.9032 53.2132 36.0766 53.1772 36.2519 53.178C36.4271 53.1788 36.6002 53.2162 36.7601 53.2879C36.92 53.3596 37.0632 53.464 37.1804 53.5943C37.2975 53.7246 37.3863 53.878 37.4406 54.0447C37.4949 54.2113 37.5136 54.3874 37.4957 54.5617C37.4867 55.7405 37.4957 56.9193 37.4957 58.189C38.3956 58.189 39.2365 58.168 40.0763 58.196C40.3559 58.1928 40.6268 58.2932 40.8369 58.4778C41.0469 58.6624 41.1809 58.9181 41.2138 59.1958C41.2726 59.4672 41.2342 59.7505 41.1054 59.9965C40.9766 60.2425 40.7654 60.4354 40.5088 60.5415C40.2917 60.6217 40.0617 60.6607 39.8302 60.6565C33.2762 60.6625 26.7216 60.6625 20.1662 60.6565C19.9921 60.6788 19.8149 60.6643 19.6468 60.614C19.4786 60.5638 19.3231 60.4788 19.1898 60.3646C19.0565 60.2505 18.9485 60.1096 18.873 59.9512C18.7975 59.7927 18.7562 59.6202 18.7515 59.4447C18.7325 58.6959 19.2862 58.193 20.175 58.178C20.9308 58.165 21.6868 58.178 22.5046 58.178C22.5046 56.8783 22.4915 55.6575 22.5105 54.4367C22.5052 54.116 22.6238 53.8055 22.8415 53.5698C23.0591 53.3341 23.359 53.1913 23.6792 53.171C23.9778 53.1537 24.2729 53.2465 24.5076 53.4318C24.7424 53.6172 24.901 53.8823 24.9533 54.1768C24.9965 54.4478 25.014 54.7223 25.0061 54.9966C25.0061 56.0294 25.0061 57.0622 25.0061 58.135L34.9889 58.133Z" fill="#101010"/>
<path d="M10.6396 39.4227C11.2505 39.4227 11.8633 39.4077 12.4742 39.4227C12.6382 39.418 12.8015 39.446 12.9546 39.5051C13.1076 39.5642 13.2477 39.6531 13.3661 39.7667C13.4845 39.8803 13.5791 40.0164 13.6444 40.1669C13.7096 40.3174 13.7443 40.4794 13.7464 40.6434C13.7524 40.8029 13.7266 40.9619 13.6707 41.1113C13.6148 41.2608 13.5295 41.3976 13.4203 41.5139C13.3111 41.6303 13.1802 41.7238 13.0346 41.7891C12.889 41.8543 12.7318 41.8901 12.5723 41.8942C11.2666 41.9352 9.95696 41.9372 8.65122 41.8882C8.4916 41.884 8.33426 41.8472 8.1894 41.7801C8.04454 41.7129 7.91542 41.6168 7.80911 41.4976C7.7028 41.3785 7.62166 41.2388 7.57136 41.0873C7.52106 40.9357 7.50222 40.7755 7.5162 40.6164C7.51735 40.4575 7.55047 40.3004 7.61286 40.1542C7.67524 40.0081 7.76594 39.8757 7.87989 39.765C7.99384 39.6542 8.12843 39.5671 8.2763 39.5089C8.42417 39.4506 8.58216 39.4224 8.74105 39.4257C9.36892 39.4057 10.0027 39.4237 10.6396 39.4227Z" fill="#101010"/>
<path d="M41.3227 9.3995C41.7626 9.44949 42.2093 9.46749 42.6422 9.55547C42.8116 9.57231 42.9755 9.62437 43.1236 9.70833C43.2716 9.79229 43.4005 9.90628 43.5019 10.043C43.6033 10.1797 43.6749 10.3361 43.7123 10.5021C43.7497 10.6682 43.7522 10.8402 43.7191 11.0072C43.6516 11.33 43.4627 11.6145 43.1914 11.802C42.9202 11.9896 42.5873 12.0658 42.2614 12.015C41.4875 11.9525 40.7084 11.9884 39.9435 12.122C38.6895 12.4445 37.6128 13.2475 36.9461 14.3575C36.2793 15.4674 36.076 16.7952 36.3803 18.0538C36.6782 19.3012 37.4433 20.387 38.5175 21.0876C39.5918 21.7882 40.8938 22.0503 42.1555 21.82C43.4389 21.5863 44.5791 20.8584 45.3316 19.7928C46.0841 18.7271 46.3887 17.4088 46.1796 16.1212C46.0346 15.2153 46.4255 14.5575 47.1794 14.4315C47.9332 14.3055 48.5273 14.8364 48.6522 15.7312C48.9567 17.676 48.487 19.6626 47.3444 21.2655C46.2018 22.8684 44.4769 23.96 42.5392 24.3065C40.5878 24.642 38.5827 24.1944 36.9593 23.0608C35.3359 21.9273 34.2254 20.1992 33.8681 18.2517C33.675 17.1647 33.7232 16.0485 34.0092 14.9821C34.2952 13.9157 34.8119 12.9252 35.523 12.0807C36.2342 11.2362 37.1224 10.5582 38.1246 10.0949C39.1267 9.63161 40.2186 9.3942 41.3227 9.3995Z" fill="#101010"/>
</svg>
