<svg width="310" height="64" viewBox="0 0 310 64" fill="none" xmlns="http://www.w3.org/2000/svg">
<g clip-path="url(#clip0_1_798)">
<path d="M100.754 32.5642C100.754 26.5861 105.337 22.2021 111.614 22.2021C117.891 22.2021 122.474 26.5861 122.474 32.5642C122.474 38.5423 117.891 42.9262 111.614 42.9262C105.337 42.9262 100.754 38.5423 100.754 32.5642ZM118.688 32.5642C118.688 28.3795 115.699 25.4901 111.614 25.4901C107.529 25.4901 104.54 28.4791 104.54 32.5642C104.54 36.6492 107.529 39.6383 111.614 39.6383C115.699 39.6383 118.688 36.7488 118.688 32.5642Z" fill="white"/>
<path d="M150.272 22.501V42.7269H147.183L136.024 28.9772V42.7269H132.338V22.501H135.427L146.586 36.2506V22.501H150.272Z" fill="white"/>
<path d="M176.576 39.5385V42.7269H161.431V22.501H176.177V25.6893H165.218V30.9699H174.982V34.0586H165.218V39.6382H176.576V39.5385Z" fill="white"/>
<path d="M193.514 34.2579L190.325 37.5458V42.7269H186.539V22.501H190.325V32.863L200.289 22.501H204.474L196.005 31.5678L204.972 42.7269H200.588L193.514 34.2579Z" fill="white"/>
<path d="M211.249 32.5642C211.249 26.5861 215.832 22.2021 222.109 22.2021C228.386 22.2021 232.969 26.5861 232.969 32.5642C232.969 38.5423 228.386 42.9262 222.109 42.9262C215.832 42.9262 211.249 38.5423 211.249 32.5642ZM229.283 32.5642C229.283 28.3795 226.294 25.4901 222.209 25.4901C218.124 25.4901 215.135 28.4791 215.135 32.5642C215.135 36.6492 218.124 39.6383 222.209 39.6383C226.294 39.6383 229.283 36.7488 229.283 32.5642Z" fill="white"/>
<path d="M256.084 42.7269L251.999 36.8484C251.7 36.8484 251.501 36.8484 251.202 36.8484H246.619V42.7269H242.833V22.501H251.202C256.483 22.501 259.771 25.1911 259.771 29.6747C259.771 32.7634 258.177 34.9553 255.487 36.0513L260.169 42.7269H256.084ZM251.003 25.6893H246.619V33.7597H251.003C254.291 33.7597 255.985 32.2652 255.985 29.6747C255.985 27.0842 254.291 25.6893 251.003 25.6893Z" fill="white"/>
<path d="M268.041 40.535L269.336 37.6456C270.93 38.9408 273.521 39.8376 276.012 39.8376C279.2 39.8376 280.495 38.7416 280.495 37.2471C280.495 32.8631 268.439 35.7525 268.439 28.1803C268.439 24.8923 271.03 22.1025 276.609 22.1025C279.001 22.1025 281.591 22.7004 283.385 23.896L282.189 26.7854C280.396 25.6894 278.403 25.1912 276.609 25.1912C273.521 25.1912 272.225 26.3868 272.225 27.981C272.225 32.2653 284.182 29.4755 284.182 36.9481C284.182 40.2361 281.591 42.9262 276.012 42.9262C272.823 43.0259 269.635 42.0295 268.041 40.535Z" fill="white"/>
<path d="M308.791 39.5385V42.7269H293.647V22.501H308.393V25.6893H297.433V30.9699H307.197V34.0586H297.433V39.6382H308.791V39.5385Z" fill="white"/>
<path d="M68.3723 31.5674L56.5157 10.943C56.2168 10.3452 55.619 10.0463 54.9216 10.0463H44.8584L46.8511 4.76564C47.15 3.86892 46.7515 2.77294 45.7551 2.47403C44.7588 2.17513 43.7625 2.57367 43.4636 3.57002L26.0274 51.2951H15.6654L4.8052 32.4641L15.6654 13.6331H26.5256C27.522 13.6331 28.319 12.8361 28.319 11.8397C28.319 10.8434 27.522 10.0463 26.5256 10.0463H14.6691C14.0713 10.0463 13.4734 10.3452 13.0749 10.943L1.11871 31.5674C0.819805 32.1652 0.819805 32.7631 1.11871 33.3609L12.9753 53.9853C13.2742 54.5831 13.872 54.882 14.5694 54.882H24.6326L22.6399 60.1627C22.341 61.0594 22.7395 62.1554 23.7358 62.4543C24.6325 62.7532 25.7285 62.3546 26.0274 61.3583L43.4636 13.6331H53.8256L64.6858 32.4641L53.8256 51.2951H42.9654C41.969 51.2951 41.172 52.0922 41.172 53.0886C41.172 54.0849 41.969 54.882 42.9654 54.882H54.9216C55.5194 54.882 56.1172 54.5831 56.5157 53.9853L68.3723 33.3609C68.6712 32.7631 68.6712 32.0656 68.3723 31.5674Z" fill="url(#paint0_linear_1_798)"/>
</g>
<defs>
<linearGradient id="paint0_linear_1_798" x1="34.7471" y1="2.29478" x2="34.7471" y2="62.5737" gradientUnits="userSpaceOnUse">
<stop stop-color="#FEC983"/>
<stop offset="1" stop-color="#FF7B7B"/>
</linearGradient>
<clipPath id="clip0_1_798">
<rect width="309.964" height="62.77" fill="white" transform="translate(0.0178223 0.979492)"/>
</clipPath>
</defs>
</svg>
