<svg width="169" height="89" viewBox="0 0 169 89" fill="none" xmlns="http://www.w3.org/2000/svg">
<g clip-path="url(#clip0_1_659)">
<g clip-path="url(#clip1_1_659)">
<path fill-rule="evenodd" clip-rule="evenodd" d="M3.172 58.4568L3.5168 39.5528L7.8128 37.1472L23.9656 46.2552L24.4816 66.0184C21.0448 68.768 20.5224 68.44 17.7792 67.2208L3.172 58.4568ZM4.7712 56.048L18.4208 64.1248L18.432 50.0848L5.048 42.2784L4.7712 56.048ZM10.4368 60.116C9.9008 59.804 9.2944 59.8448 9.084 60.2072C8.8736 60.5688 9.1384 61.1152 9.6744 61.4272C10.2104 61.7392 10.8168 61.6984 11.0272 61.3368C11.2376 60.9752 10.9728 60.428 10.4368 60.116ZM3.5168 39.5528L20.0144 49.1768V67.3936L22.9352 65.16L22.592 46.9432L7.656 38.5728L4.7448 40.2696L3.5168 39.5528Z" fill="url(#paint0_linear_1_659)"/>
<path fill-rule="evenodd" clip-rule="evenodd" d="M47.2768 58.4568L46.9336 39.5528L45.9712 40.1136L46.5576 39.6824L42.4768 36.9248L42.4568 37.2488L26.4824 46.256L25.9664 66.0192C29.4032 68.7688 29.9256 68.4408 32.6688 67.2216L47.2768 58.4568ZM45.5168 40.38L30.4344 49.1768V67.3936L27.5136 65.16L27.8568 46.9432L42.7648 38.5888L45.5168 40.38Z" fill="url(#paint1_linear_1_659)"/>
<path fill-rule="evenodd" clip-rule="evenodd" d="M25.7848 20.4919L41.984 30.2423L41.2144 30.6823L41.656 34.4511L41.9192 35.1663L25.9536 44.6015L8.5808 35.1663C7.9192 30.8159 8.464 30.5271 10.8912 28.7607L25.7848 20.4919ZM24.1032 26.0791V32.9343L29.1848 29.3823L24.1032 26.0791ZM40.0608 31.3399L25.4 39.7175L9.6248 30.6095L10.0992 34.2567L26.0464 43.0671L40.484 34.4831L40.0608 31.3399Z" fill="url(#paint2_linear_1_659)"/>
<path fill-rule="evenodd" clip-rule="evenodd" d="M35.5288 52.0464L42.8216 47.792V49.0592L35.5288 53.3136V52.0464Z" fill="white"/>
<path fill-rule="evenodd" clip-rule="evenodd" d="M35.5288 55.2393L42.8216 50.9849V52.2521L35.5288 56.5065V55.2393Z" fill="white"/>
<path fill-rule="evenodd" clip-rule="evenodd" d="M35.5288 58.3792L42.8216 54.1248V55.3936L35.5288 59.6472V58.3792Z" fill="white"/>
<path fill-rule="evenodd" clip-rule="evenodd" d="M54.6696 47.0088H61.852C67.9072 47.0088 72.0912 42.7976 72.0912 37.376V37.3216C72.0912 31.8992 67.9072 27.744 61.852 27.744H54.6696V47.0088ZM61.852 30.8264C65.8992 30.8264 68.5416 33.6056 68.5416 37.376V37.4312C68.5416 41.2016 65.8992 43.9256 61.852 43.9256H58.0544V30.8264H61.852ZM76.384 47.0088H79.7688V27.7448H76.384V47.0088ZM94.0528 47.3384C97.464 47.3384 100.189 45.9616 102.089 44.3392V36.248H93.888V39.192H98.8144V42.7976C97.6312 43.6784 95.9792 44.2568 94.1616 44.2568C90.2272 44.2568 87.6128 41.34 87.6128 37.376V37.3216C87.6128 33.6328 90.3096 30.5232 93.8592 30.5232C96.3088 30.5232 97.7672 31.3208 99.2528 32.5872L101.4 30.0288C99.4176 28.3496 97.3552 27.4136 93.996 27.4136C88.1904 27.4136 84.0624 31.9832 84.0624 37.376V37.4312C84.0632 43.0448 88.0256 47.3384 94.0528 47.3384ZM106.686 47.0088H110.07V27.7448H106.686V47.0088ZM119.95 47.0088H123.362V30.8808H129.472V27.744H113.839V30.8808H119.949L119.95 47.0088ZM128.921 47.0088L137.398 27.6064H140.535L149.012 47.0088H145.434C142.646 40.3728 141.801 38.3376 138.911 31.652C136.285 37.7808 134.974 40.9392 132.389 47.0088H128.921ZM152.314 47.0088H165.828V43.9256H155.699V27.744H152.314V47.0088Z" fill="black"/>
<path fill-rule="evenodd" clip-rule="evenodd" d="M61.4616 54.3623H54.8928V63.4487H61.528V62.5135H55.9192V59.3327H60.8776V58.3991H55.9192V55.2959H61.4616V54.3623ZM75.6288 58.8911C75.6288 56.3223 73.6544 54.3623 70.7992 54.3623H67.6456V63.4487H70.7992C73.6552 63.4479 75.6288 61.4623 75.6288 58.8911ZM74.5648 58.9183C74.5648 60.9431 73.0976 62.5007 70.7992 62.5007H68.6704V55.3095H70.7992C73.0976 55.3087 74.5648 56.8927 74.5648 58.9183ZM89.2752 54.3623H88.2488V59.6447C88.2488 61.6311 87.1864 62.6431 85.512 62.6431C83.7712 62.6431 82.7328 61.5407 82.7328 59.5791V54.3615H81.7064V59.6439C81.7064 62.2143 83.24 63.5903 85.4856 63.5903C87.756 63.5903 89.2752 62.2143 89.2752 59.5663V54.3623ZM103.546 62.0071L102.87 61.3455C102.002 62.1767 101.183 62.6567 99.9376 62.6567C97.9376 62.6567 96.42 61.0079 96.42 58.8911C96.42 56.7759 97.9256 55.1543 99.9376 55.1543C101.169 55.1543 102.026 55.6735 102.794 56.3999L103.494 55.6471C102.587 54.7895 101.598 54.2063 99.9504 54.2063C97.276 54.2063 95.356 56.3223 95.356 58.9183C95.356 61.5407 97.2896 63.6039 99.912 63.6039C101.56 63.6039 102.598 62.9687 103.546 62.0071ZM113.715 54.2967H112.754L108.612 63.4487H109.665L110.742 61.0471H115.688L116.753 63.4487H117.856L113.715 54.2967ZM115.285 60.1255H111.143L113.22 55.4911L115.285 60.1255ZM125.973 55.3087H129.024V54.3615H121.884V55.3087H124.935V63.4479H125.974L125.973 55.3087ZM135.09 54.3623V63.4487H136.116V54.3623H135.09ZM151.696 58.8911C151.696 56.3735 149.841 54.2063 147.075 54.2063C144.31 54.2063 142.428 56.3999 142.428 58.9183C142.428 61.4359 144.283 63.6039 147.049 63.6039C149.814 63.6039 151.696 61.4103 151.696 58.8911ZM150.631 58.9183C150.631 60.9943 149.152 62.6567 147.075 62.6567C144.998 62.6567 143.491 60.9695 143.491 58.8911C143.491 56.8151 144.972 55.1543 147.05 55.1543C149.126 55.1535 150.631 56.8407 150.631 58.9183ZM164.604 61.6431L158.878 54.3623H157.918V63.4487H158.918V55.9975L164.785 63.4487H165.604V54.3623H164.604V61.6431Z" fill="black"/>
</g>
</g>
<defs>
<linearGradient id="paint0_linear_1_659" x1="12.6287" y1="63.9524" x2="15.4096" y2="41.3035" gradientUnits="userSpaceOnUse">
<stop stop-color="#007FC3"/>
<stop offset="1" stop-color="#5CAF47"/>
</linearGradient>
<linearGradient id="paint1_linear_1_659" x1="36.379" y1="66.6909" x2="37.3667" y2="38.4076" gradientUnits="userSpaceOnUse">
<stop stop-color="#490E4A"/>
<stop offset="1" stop-color="#E41D37"/>
</linearGradient>
<linearGradient id="paint2_linear_1_659" x1="25.025" y1="24.1175" x2="25.3246" y2="41.2851" gradientUnits="userSpaceOnUse">
<stop stop-color="#F37C20"/>
<stop offset="1" stop-color="#CD2026"/>
</linearGradient>
<clipPath id="clip0_1_659">
<rect width="168" height="88" fill="white" transform="translate(0.5 0.30957)"/>
</clipPath>
<clipPath id="clip1_1_659">
<rect width="168" height="88" fill="white" transform="translate(0.5 0.30957)"/>
</clipPath>
</defs>
</svg>
