<svg width="169" height="89" viewBox="0 0 169 89" fill="none" xmlns="http://www.w3.org/2000/svg">
<g clip-path="url(#clip0_1_701)">
<g clip-path="url(#clip1_1_701)">
<path d="M2.09998 20.5496V68.0696H49.62V62.6296C49.06 61.6696 48.18 60.3896 46.9 59.1096C44.58 56.7896 40.5 53.9896 34.18 53.9896C33.86 53.9896 33.46 53.9896 33.14 53.9896V26.0696C33.46 25.9896 34.02 25.9896 34.82 25.9896C38.26 25.9896 44.66 27.1896 49.62 34.9496V20.5496H2.09998ZM48.98 63.3496C42.9 59.9096 37.54 58.5496 34.02 58.0696C30.98 57.6696 28.74 57.7496 27.86 57.8296V30.4696L32.26 31.7496V54.4696C32.26 54.5496 32.34 54.7096 32.42 54.7896C32.5 54.8696 32.58 54.9496 32.74 54.8696C33.22 54.8696 33.7 54.7896 34.18 54.7896C38.98 54.7896 43.06 56.3896 46.26 59.6696C47.62 61.0296 48.5 62.3896 48.98 63.3496ZM23.06 34.7096L27.06 35.3496V58.3096C27.06 58.4696 27.14 58.5496 27.22 58.6296C27.3 58.7096 27.46 58.7096 27.54 58.7096C27.54 58.7096 30.02 58.3096 34.02 58.8696C36.5 59.1896 40.02 59.9896 44.02 61.7496C43.06 61.5096 42.1 61.3496 41.06 61.2696C38.26 60.9496 35.3 61.0296 32.1 61.3496C27.86 61.8296 24.42 62.8696 23.14 63.2696L23.06 34.7096Z" fill="#00588E"/>
<path d="M45.94 52.3896V38.5496H56.42V41.2696H48.98V44.0696H55.54V46.7896H48.98V49.6696H56.5V52.3896H45.94Z" fill="#00588E"/>
<path d="M64.66 52.3896H59.22V38.5496H64.66C69.06 38.5496 72.02 41.5096 72.02 45.4296C72.02 49.3496 68.98 52.3896 64.66 52.3896ZM68.82 45.4296C68.82 42.9496 67.14 41.2696 64.66 41.2696H62.34V49.6696H64.66C67.14 49.6696 68.82 47.9896 68.82 45.4296Z" fill="#00588E"/>
<path d="M80.5 52.6296C76.74 52.6296 74.5 50.5496 74.5 46.4696V38.5496H77.54V46.3896C77.54 48.6296 78.66 49.8296 80.5 49.8296C82.34 49.8296 83.46 48.7096 83.46 46.4696V38.5496H86.5V46.3896C86.58 50.5496 84.26 52.6296 80.5 52.6296Z" fill="#00588E"/>
<path d="M96.18 52.6296C92.1 52.6296 89.06 49.5096 89.06 45.5096C89.06 41.5896 92.02 38.3096 96.26 38.3096C98.9 38.3096 100.42 39.1896 101.7 40.4696L99.78 42.7096C98.74 41.7496 97.62 41.1096 96.26 41.1096C93.94 41.1096 92.26 43.0296 92.26 45.4296C92.26 47.8296 93.94 49.8296 96.26 49.8296C97.86 49.8296 98.82 49.1896 99.94 48.2296L101.86 50.2296C100.5 51.6696 98.9 52.6296 96.18 52.6296Z" fill="#00588E"/>
<path d="M114.66 52.3896L113.38 49.2697H107.54L106.26 52.3896H103.14L109.06 38.3896H111.86L117.78 52.3896H114.66ZM110.5 42.0697L108.66 46.5496H112.34L110.5 42.0697Z" fill="#00588E"/>
<path d="M124.5 41.3496V52.3896H121.46V41.3496H117.22V38.5496H128.74V41.3496H124.5Z" fill="#00588E"/>
<path d="M131.22 52.3896V38.5496H134.26V52.3896H131.22Z" fill="#00588E"/>
<path d="M144.5 52.6296C140.18 52.6296 137.14 49.4296 137.14 45.5096C137.14 41.5896 140.26 38.3096 144.5 38.3096C148.74 38.3096 151.86 41.5096 151.86 45.4296C151.86 49.4296 148.74 52.6296 144.5 52.6296ZM148.66 45.4296C148.66 43.0296 146.9 41.0296 144.42 41.0296C141.94 41.0296 140.26 42.9496 140.26 45.3496C140.26 47.7496 142.02 49.7496 144.5 49.7496C146.98 49.7496 148.66 47.9096 148.66 45.4296Z" fill="#00588E"/>
<path d="M164.34 52.3896L157.62 43.5896V52.3896H154.58V38.5496H157.38L163.86 47.1096V38.5496H166.9V52.3896H164.34Z" fill="#00588E"/>
</g>
</g>
<defs>
<clipPath id="clip0_1_701">
<rect width="168" height="88" fill="white" transform="translate(0.5 0.30957)"/>
</clipPath>
<clipPath id="clip1_1_701">
<rect width="168" height="88" fill="white" transform="translate(0.5 0.30957)"/>
</clipPath>
</defs>
</svg>
