<svg width="169" height="89" viewBox="0 0 169 89" fill="none" xmlns="http://www.w3.org/2000/svg">
<g clip-path="url(#clip0_1_625)">
<g clip-path="url(#clip1_1_625)">
<path fill-rule="evenodd" clip-rule="evenodd" d="M23.06 67.1896L24.9 63.9896L32.18 51.3496H17.62H3.13998L10.34 63.9896L12.26 67.1896H23.06Z" fill="#FACB8F"/>
<path fill-rule="evenodd" clip-rule="evenodd" d="M17.62 76.5495L21.78 69.2695H13.46L17.62 76.5495Z" fill="#333333"/>
<path fill-rule="evenodd" clip-rule="evenodd" d="M3.14 49.2696H11.06V26.1496C11.06 25.1896 10.26 24.3896 9.3 24.3896H4.82C3.86 24.3896 3.06 25.1896 3.06 26.1496C3.14 26.1496 3.14 49.2696 3.14 49.2696Z" fill="#ECC469"/>
<path fill-rule="evenodd" clip-rule="evenodd" d="M13.62 49.2696H21.62V26.1496C21.62 25.1896 20.82 24.3896 19.86 24.3896H15.46C14.5 24.3896 13.7 25.1896 13.7 26.1496C13.62 26.1496 13.62 49.2696 13.62 49.2696Z" fill="#E7745D"/>
<path fill-rule="evenodd" clip-rule="evenodd" d="M24.26 49.2696H32.18V26.1496C32.18 25.1896 31.38 24.3896 30.42 24.3896H26.02C25.06 24.3896 24.26 25.1896 24.26 26.1496V49.2696Z" fill="#24A192"/>
<path fill-rule="evenodd" clip-rule="evenodd" d="M7.06 15.0295C9.22 15.0295 11.06 16.7895 11.06 19.0295C11.06 21.2695 9.3 23.0295 7.06 23.0295C4.82 23.0295 3.06 21.2695 3.06 19.0295C3.06 16.7895 4.9 15.0295 7.06 15.0295Z" fill="#ECC469"/>
<path fill-rule="evenodd" clip-rule="evenodd" d="M17.62 15.0295C19.78 15.0295 21.62 16.7895 21.62 19.0295C21.62 21.2695 19.78 23.0295 17.62 23.0295C15.46 23.0295 13.62 21.2695 13.62 19.0295C13.62 16.7895 15.46 15.0295 17.62 15.0295Z" fill="#E7745D"/>
<path fill-rule="evenodd" clip-rule="evenodd" d="M28.18 15.0295C30.34 15.0295 32.18 16.7895 32.18 19.0295C32.18 21.2695 30.42 23.0295 28.18 23.0295C25.94 23.0295 24.18 21.2695 24.18 19.0295C24.18 16.7895 26.02 15.0295 28.18 15.0295Z" fill="#24A192"/>
<path d="M41.14 40.6296C42.9 41.5896 45.46 42.2296 48.34 42.2296C54.66 42.2296 57.94 39.1096 57.94 34.7896C57.86 31.3496 55.94 29.1896 51.62 27.5896C48.58 26.4696 47.46 25.8296 47.46 24.3096C47.46 22.7896 48.58 21.7496 50.82 21.7496C52.9 21.7496 54.82 22.5496 55.86 23.1096L56.98 18.9496C55.62 18.1496 53.3 17.5096 50.66 17.5096C45.14 17.5096 41.7 20.7096 41.7 24.8696C41.7 27.6696 43.62 30.2296 48.18 31.7496C51.06 32.7896 52.1 33.5896 52.1 35.1896C52.1 36.7096 50.98 37.8296 48.34 37.8296C46.18 37.8296 43.62 36.8696 42.34 36.0696L41.14 40.6296ZM64.34 41.8296H70.18V27.7496C70.18 27.1096 70.34 26.3896 70.5 25.7496C71.06 24.1496 72.58 22.3896 74.82 22.3896C77.54 22.3896 78.9 24.7096 78.9 27.9896V41.6696H84.74V27.6696C84.74 27.0296 84.82 26.1496 84.98 25.6696C85.62 23.9896 87.14 22.5496 89.22 22.5496C92.1 22.5496 93.46 24.8696 93.46 28.7896V41.9096H99.3V27.8296C99.3 20.2296 95.3 17.5896 91.46 17.5896C89.46 17.5896 87.94 18.0696 86.58 19.0296C85.54 19.6696 84.58 20.6296 83.7 21.9096H83.62C82.58 19.3496 80.18 17.5896 77.06 17.5896C72.98 17.5896 70.9 19.7496 69.78 21.5896H69.62L69.3 18.1496H64.18C64.34 20.1496 64.42 22.4696 64.42 25.1896L64.34 41.8296ZM125.46 27.6696C125.46 22.4696 123.3 17.6696 115.7 17.6696C111.94 17.6696 108.9 18.7096 107.14 19.7496L108.26 23.5896C109.86 22.5496 112.34 21.8296 114.66 21.8296C118.9 21.8296 119.46 24.3896 119.46 25.9896V26.3896C110.74 26.3096 105.46 29.3496 105.46 35.3496C105.46 38.9496 108.1 42.3896 112.9 42.3896C116.02 42.3896 118.42 41.1096 119.86 39.1896H120.02L120.5 41.8296H125.86C125.62 40.3096 125.46 38.3096 125.46 36.1496V27.6696ZM119.7 33.5096C119.7 33.9896 119.7 34.3896 119.54 34.8696C118.98 36.5496 117.22 38.1496 114.9 38.1496C112.98 38.1496 111.46 37.0296 111.46 34.7896C111.46 31.1896 115.54 30.3096 119.7 30.3096V33.5096ZM133.38 41.8296H139.38V29.5096C139.38 28.8696 139.38 28.2296 139.54 27.6696C140.1 24.9496 142.02 23.1096 144.9 23.1096C145.54 23.1096 146.1 23.1896 146.66 23.2696V17.6696C146.18 17.5896 145.86 17.5096 145.22 17.5096C142.66 17.5096 139.94 19.1896 138.74 22.5496H138.58L138.34 18.0696H133.22C133.38 20.1496 133.38 22.4696 133.38 25.6696V41.8296ZM154.34 13.6696V18.1496H150.98V22.6296H154.34V33.7496C154.34 36.8696 154.98 39.0296 156.26 40.3896C157.38 41.5896 159.14 42.3896 161.38 42.3896C163.3 42.3896 164.82 42.1496 165.7 41.7496L165.62 37.1896C164.98 37.4296 164.34 37.4296 163.22 37.4296C160.98 37.4296 160.18 35.9896 160.18 33.1096V22.6296H165.86V18.1496H160.18V12.0696L154.34 13.6696Z" fill="#333333"/>
<path d="M54.26 63.7495C54.26 63.4295 54.34 62.8695 54.34 62.2295C54.34 59.1095 52.82 55.3495 48.34 55.3495C43.86 55.3495 41.46 59.0295 41.46 62.8695C41.46 67.1095 44.18 69.9895 48.74 69.9895C50.74 69.9895 52.42 69.5895 53.62 69.0295L53.06 66.6295C51.94 66.9495 50.82 67.2695 49.22 67.2695C46.9 67.2695 44.98 66.1495 44.9 63.6695H54.26V63.7495ZM44.82 61.1895C45.06 59.7495 45.94 57.8295 48.1 57.8295C50.5 57.8295 50.98 59.9095 50.98 61.1895H44.82ZM66.74 49.2695V57.1895H66.66C66.02 56.1495 64.66 55.3495 62.74 55.3495C59.38 55.3495 56.42 58.1495 56.5 62.7895C56.5 67.1095 59.14 69.9895 62.5 69.9895C64.5 69.9895 66.26 69.0295 67.06 67.5095H67.14L67.38 69.6695H70.5C70.42 68.7095 70.34 67.1895 70.34 65.7495V49.2695H66.74ZM66.74 63.6695C66.74 63.9895 66.74 64.3095 66.58 64.7095C66.26 66.2295 65.06 67.1895 63.54 67.1895C61.3 67.1895 60.1 65.2695 60.1 62.7095C60.1 60.1495 61.3 58.1495 63.62 58.1495C65.22 58.1495 66.34 59.2695 66.66 60.6295C66.74 60.8695 66.74 61.2695 66.74 61.5895V63.6695ZM86.82 55.7495H83.3V64.2295C83.3 64.5495 83.22 64.9495 83.06 65.3495C82.74 66.2295 81.78 67.2695 80.34 67.2695C78.42 67.2695 77.7 65.7495 77.7 63.4295V55.8295H74.18V64.0695C74.18 68.6295 76.5 70.1495 79.06 70.1495C81.54 70.1495 82.9 68.7095 83.54 67.6695H83.7L83.86 69.7495H86.9C86.9 68.6295 86.82 67.2695 86.82 65.5095V55.7495ZM100.58 66.6295C99.94 66.9495 99.06 67.1895 97.78 67.1895C95.38 67.1895 93.54 65.5895 93.54 62.7095C93.54 60.1495 95.06 58.1495 97.78 58.1495C99.06 58.1495 99.86 58.3895 100.5 58.7095L101.14 56.0695C100.34 55.7495 99.06 55.4295 97.78 55.4295C92.82 55.4295 90.02 58.7095 90.02 62.8695C90.02 67.1895 92.9 70.0695 97.22 70.0695C98.98 70.0695 100.5 69.6695 101.22 69.3495L100.58 66.6295ZM114.74 61.3495C114.74 58.2295 113.46 55.3495 108.98 55.3495C106.74 55.3495 104.98 55.9895 103.86 56.5495L104.5 58.8695C105.46 58.2295 106.9 57.8295 108.26 57.8295C110.66 57.8295 111.14 59.3495 111.14 60.3095V60.5495C106.02 60.4695 102.82 62.3095 102.82 65.8295C102.82 67.9095 104.42 69.9895 107.22 69.9895C109.06 69.9895 110.58 69.2695 111.38 68.0695H111.54L111.78 69.5895H114.98C114.82 68.7895 114.74 67.5095 114.74 66.2295V61.3495ZM111.3 64.7895C111.3 65.0295 111.3 65.2695 111.22 65.5095C110.9 66.5495 109.86 67.5095 108.42 67.5095C107.3 67.5095 106.42 66.8695 106.42 65.5095C106.42 63.4295 108.82 62.8695 111.3 62.8695V64.7895ZM119.06 53.1095V55.7495H117.06V58.3895H119.06V64.9495C119.06 66.7895 119.38 68.0695 120.18 68.8695C120.82 69.5895 121.94 69.9895 123.22 69.9895C124.34 69.9895 125.22 69.7495 125.78 69.5895L125.7 66.9495C125.3 67.1095 124.98 67.1095 124.34 67.1095C122.98 67.1095 122.5 66.2295 122.5 64.5495V58.3895H125.86V55.7495H122.5V52.1495L119.06 53.1095ZM132.26 69.6695V55.7495H128.74V69.7495H132.26V69.6695ZM130.5 49.9095C129.38 49.9095 128.5 50.7095 128.5 51.8295C128.5 52.9495 129.22 53.7495 130.5 53.7495C131.7 53.7495 132.5 52.9495 132.5 51.8295C132.5 50.7095 131.7 49.9095 130.5 49.9095ZM142.66 55.3495C138.42 55.3495 135.38 58.2295 135.38 62.7895C135.38 67.2695 138.42 69.9895 142.34 69.9895C145.94 69.9895 149.54 67.6695 149.54 62.5495C149.54 58.3095 146.74 55.3495 142.66 55.3495ZM142.58 57.9895C144.98 57.9895 145.94 60.4695 145.94 62.6295C145.94 65.5095 144.5 67.4295 142.5 67.4295C140.42 67.4295 139.06 65.4295 139.06 62.7095C139.06 60.3895 140.1 57.9895 142.58 57.9895ZM152.66 69.6695H156.18V61.5095C156.18 61.1095 156.26 60.6295 156.42 60.3895C156.74 59.2695 157.7 58.3895 159.14 58.3895C161.14 58.3895 161.86 59.9095 161.86 61.9095V69.7495H165.38V61.4295C165.38 57.0295 162.82 55.4295 160.34 55.4295C158.02 55.4295 156.58 56.7895 155.86 57.9095H155.78L155.62 55.8295H152.5C152.58 57.0295 152.66 58.3895 152.66 59.9895V69.6695Z" fill="#333333"/>
</g>
</g>
<defs>
<clipPath id="clip0_1_625">
<rect width="168" height="88" fill="white" transform="translate(0.5 0.30957)"/>
</clipPath>
<clipPath id="clip1_1_625">
<rect width="168" height="88" fill="white" transform="translate(0.5 0.30957)"/>
</clipPath>
</defs>
</svg>
