<svg width="169" height="89" viewBox="0 0 169 89" fill="none" xmlns="http://www.w3.org/2000/svg">
<g clip-path="url(#clip0_1_673)">
<g clip-path="url(#clip1_1_673)">
<path d="M31.7 37.4295C34.7928 37.4295 37.3 34.9223 37.3 31.8295C37.3 28.7367 34.7928 26.2295 31.7 26.2295C28.6072 26.2295 26.1 28.7367 26.1 31.8295C26.1 34.9223 28.6072 37.4295 31.7 37.4295Z" fill="#00335F"/>
<path d="M24.82 48.7896C24.82 48.7896 30.02 50.9496 29.86 56.5496C29.54 65.3496 -5.26 70.9496 19.7 85.9096C4.42 81.2696 -1.02 73.8296 4.18 66.5496C9.54 58.8696 33.46 59.9896 24.82 48.7896Z" fill="#F6921E"/>
<path d="M13.54 57.5096C16.6328 57.5096 19.14 55.0024 19.14 51.9096C19.14 48.8168 16.6328 46.3096 13.54 46.3096C10.4472 46.3096 7.94 48.8168 7.94 51.9096C7.94 55.0024 10.4472 57.5096 13.54 57.5096Z" fill="#F6921E"/>
<path d="M24.1 65.9894C24.1 65.9894 31.86 62.3894 32.66 56.9494C33.54 51.5094 28.42 47.7494 23.46 44.3094C13.54 37.5094 11.22 28.3894 19.14 20.1494C13.54 28.2294 18.42 35.4294 32.82 42.0694C44.74 47.6694 45.94 59.9094 24.1 65.9894Z" fill="#00335F"/>
<path d="M20.58 2.70947L22.58 6.62947L26.9 7.26947L23.7 10.3095L24.5 14.5495L20.58 12.5495L16.74 14.5495L17.46 10.3095L14.34 7.26947L18.66 6.62947L20.58 2.70947Z" fill="#00335F"/>
<path d="M19.78 72.5495L22.1 76.1495L24.42 72.5495H27.54L23.38 78.7095V83.7495H20.82V78.7095L16.66 72.4695C16.66 72.5495 19.78 72.5495 19.78 72.5495Z" fill="#F6921E"/>
<path d="M33.06 72.3096C36.18 72.3096 38.74 74.8696 38.74 78.1496C38.74 81.4296 36.34 83.9896 33.06 83.9896C29.7 83.9896 27.38 81.4296 27.38 78.1496C27.38 74.8696 30.02 72.3096 33.06 72.3096ZM33.06 81.5096C35.14 81.5096 35.94 79.8296 35.94 78.1496C35.94 76.4696 35.06 74.7896 33.06 74.7896C31.06 74.7896 30.18 76.4696 30.18 78.1496C30.18 79.8296 30.98 81.5096 33.06 81.5096Z" fill="#F6921E"/>
<path d="M48.5 79.7495C48.5 82.5495 46.98 83.9895 44.1 83.9895C41.22 83.9895 39.7 82.5495 39.7 79.7495V72.4695H42.26V78.9495C42.26 80.8695 42.82 81.3495 44.1 81.3495C45.38 81.3495 45.94 80.7895 45.94 78.9495V72.4695H48.5V79.7495Z" fill="#F6921E"/>
<path d="M48.66 72.5496H56.58V74.7896H53.94V83.8296H51.38V74.7896H48.74V72.5496H48.66Z" fill="#F6921E"/>
<path d="M60.1 83.7496H57.54V72.5496H60.1V77.0296H63.7V72.5496H66.26V83.8296H63.7V79.3496H60.1V83.7496Z" fill="#F6921E"/>
<path d="M78.1 74.7896H74.18V77.0296H77.86V79.2696H74.18V83.7496H71.62V72.5496H78.1V74.7896Z" fill="#00335F"/>
<path d="M84.5 72.3096C87.62 72.3096 90.18 74.8696 90.18 78.1496C90.18 81.4296 87.78 83.9896 84.5 83.9896C81.14 83.9896 78.82 81.4296 78.82 78.1496C78.82 74.8696 81.46 72.3096 84.5 72.3096ZM84.5 81.5096C86.58 81.5096 87.38 79.8296 87.38 78.1496C87.38 76.4696 86.5 74.7896 84.5 74.7896C82.5 74.7896 81.62 76.4696 81.62 78.1496C81.62 79.8296 82.42 81.5096 84.5 81.5096Z" fill="#00335F"/>
<path d="M99.94 79.7495C99.94 82.5495 98.42 83.9895 95.54 83.9895C92.66 83.9895 91.14 82.5495 91.14 79.7495V72.4695H93.7V78.9495C93.7 80.8695 94.26 81.3495 95.54 81.3495C96.82 81.3495 97.38 80.7895 97.38 78.9495V72.4695H99.94V79.7495Z" fill="#00335F"/>
<path d="M104.02 83.7496H101.46V72.5496H104.02L108.5 79.5096V72.5496H111.06V83.8296H108.5L104.02 76.8696V83.7496Z" fill="#00335F"/>
<path d="M115.94 72.5496C119.06 72.5496 121.62 74.8696 121.62 78.1496C121.62 81.4296 119.06 83.7496 115.94 83.7496H112.66V72.5496H115.94ZM115.7 81.5096C117.62 81.5096 118.9 80.0696 118.9 78.1496C118.9 76.2296 117.62 74.7896 115.7 74.7896H115.3V81.4296C115.3 81.5096 115.7 81.5096 115.7 81.5096Z" fill="#00335F"/>
<path d="M133.06 83.7495H130.34L129.54 81.5095H125.22L124.42 83.7495H121.7L126.26 72.4695H128.66L133.06 83.7495ZM127.3 75.9895L126.02 79.2695H128.58L127.3 75.9895Z" fill="#00335F"/>
<path d="M132.1 72.5496H140.02V74.7896H137.38V83.8296H134.82V74.7896H132.18V72.5496H132.1Z" fill="#00335F"/>
<path d="M143.54 83.7496H140.98V72.5496H143.54V83.7496Z" fill="#00335F"/>
<path d="M150.34 72.3096C153.46 72.3096 156.02 74.8696 156.02 78.1496C156.02 81.4296 153.62 83.9896 150.34 83.9896C146.98 83.9896 144.66 81.4296 144.66 78.1496C144.66 74.8696 147.22 72.3096 150.34 72.3096ZM150.34 81.5096C152.42 81.5096 153.22 79.8296 153.22 78.1496C153.22 76.4696 152.34 74.7896 150.34 74.7896C148.34 74.7896 147.46 76.4696 147.46 78.1496C147.38 79.8296 148.18 81.5096 150.34 81.5096Z" fill="#00335F"/>
<path d="M159.7 83.7496H157.14V72.5496H159.7L164.18 79.5096V72.5496H166.74V83.8296H164.18L159.7 76.8696V83.7496Z" fill="#00335F"/>
</g>
</g>
<defs>
<clipPath id="clip0_1_673">
<rect width="168" height="88" fill="white" transform="translate(0.5 0.30957)"/>
</clipPath>
<clipPath id="clip1_1_673">
<rect width="168" height="88" fill="white" transform="translate(0.5 0.30957)"/>
</clipPath>
</defs>
</svg>
