<svg width="169" height="89" viewBox="0 0 169 89" fill="none" xmlns="http://www.w3.org/2000/svg">
<g clip-path="url(#clip0_1_611)">
<g clip-path="url(#clip1_1_611)">
<path fill-rule="evenodd" clip-rule="evenodd" d="M17.3272 32.9759V32.8967V24.0015L17.2888 23.9927C17.2544 23.9215 17.28 23.6583 17.2872 23.5831L17.2944 23.5335L15.3624 22.8551L32.232 21.3311C32.2832 21.0527 32.3008 20.7023 32.1088 20.5559C32.0744 20.5311 32.0128 20.5111 31.9288 20.4943C31.9432 20.2743 31.9176 20.0527 31.7728 19.9447C30.9496 19.3263 13.6224 21.4247 13.3352 21.6327C13.2752 21.7391 13.228 21.8943 13.1864 22.0919L11.8344 21.6183C11.5672 21.7983 11.1512 21.7599 10.8896 21.6911C9.6816 21.3767 7.7528 21.1511 7.1992 20.4511C6.9192 19.7495 7.9368 19.5671 8.5568 19.4255C9.02 19.3175 9.5016 19.2383 9.9576 19.1111C13.4632 18.1319 16.992 17.1911 20.512 16.2519C22.9016 15.6143 25.2912 14.9799 27.6864 14.3687C28.524 14.1559 29.3672 13.9423 30.2088 13.7423C30.4904 13.6751 30.9704 13.5439 31.288 13.5039L52.5568 19.0655C53.1784 19.2391 54.7504 19.4751 55.1992 19.8375C55.4008 20.0023 55.4848 20.2295 55.5176 20.4591C55.08 21.0855 50.6296 22.0567 49.8936 22.2247C48.3344 22.5783 45.4072 23.1463 44.0944 23.8807L43.8488 24.0151L43.8288 24.2671C43.7872 24.7679 43.7816 26.0415 43.7872 27.4759C40.0488 24.8599 35.088 23.8295 29.46 25.7359L29.3856 25.7631C28.1552 25.9055 26.88 26.1911 25.5696 26.6359C22.3752 27.7175 19.3968 30.0023 17.3272 32.9759ZM49.0624 21.2703C49.6224 21.1191 50.1784 20.9583 50.6872 20.7847L51.7432 20.4223L49.0624 21.2703Z" fill="#F16322"/>
<path fill-rule="evenodd" clip-rule="evenodd" d="M30.3944 19.3903C30.4456 19.1111 30.4616 18.7607 30.2688 18.6151C29.444 17.9967 12.1184 20.0935 11.8296 20.3039C11.1664 21.5287 11.5936 29.5559 11.6208 31.8287H12.9688L12.9672 31.7831C12.9344 30.5983 12.9344 29.4079 12.9144 28.2223L12.9016 27.5791L13.0688 27.6543V24.8079L13.0088 22.4247L13.0544 20.9543L30.3944 19.3903Z" fill="#F16322"/>
<path fill-rule="evenodd" clip-rule="evenodd" d="M37.36 53.3783C39.444 50.7807 42.2952 46.5727 42.7192 43.2903C43.6608 35.9767 38.2632 30.2639 31.736 29.9103C21.492 29.3543 16.5688 40.0015 20.2144 47.2103C22.2536 51.2391 31.716 57.8775 35.3648 59.7703C41.7704 64.5399 35.5232 64.3839 33.9472 63.3167C28.592 59.6855 19.9944 54.9399 16.6672 49.2671C10.8848 39.4063 17.5704 29.0263 25.6336 26.2927C42.4976 20.5735 53.4152 41.2407 43.164 51.9151C39.1752 56.4879 38.3792 57.8191 38.3792 57.8191C38.0248 57.8191 35.3648 55.8671 37.36 53.3783Z" fill="#F16322"/>
<path fill-rule="evenodd" clip-rule="evenodd" d="M26.2952 64.3248C28.952 64.4592 33.1696 65.1232 35.5864 66.2248C38.7976 67.6888 37.6328 69.8984 34.3088 69.4168C32.6136 69.1712 30.6032 68.524 29.6112 68.304C27.9016 67.9264 26.1512 67.856 25.0576 67.2824C23.5672 66.5024 22.7584 64.1488 26.2952 64.3248Z" fill="#F16322"/>
<path fill-rule="evenodd" clip-rule="evenodd" d="M26.2952 69.9566C28.952 70.0902 33.1696 70.7534 35.5864 71.8558C38.7976 73.3198 37.6328 75.5286 34.3088 75.0494C32.6136 74.8022 30.6032 74.155 29.6112 73.9342C27.9016 73.5566 26.1512 73.487 25.0576 72.9126C23.5672 72.135 22.7584 69.7806 26.2952 69.9566Z" fill="#F16322"/>
<path fill-rule="evenodd" clip-rule="evenodd" d="M33.3968 44.1991L31.892 44.9447L30.7416 45.5151C26.3384 47.6991 27.1216 48.0463 27.3976 43.7055L27.5032 42.0279L27.5848 40.7471C27.8936 35.8415 27.2016 36.3487 30.8248 38.7575L32.224 39.6871L33.2928 40.3975C37.3856 43.1183 37.2928 42.2655 33.3968 44.1991Z" fill="#F16322"/>
<path fill-rule="evenodd" clip-rule="evenodd" d="M56.6584 54.1446H63.4456C69.1664 54.1446 73.1208 50.1654 73.1208 45.043V44.991C73.1208 39.8678 69.1664 35.9414 63.4456 35.9414H56.6584V54.1446ZM63.4456 38.8534C67.2688 38.8534 69.7656 41.4806 69.7656 45.043V45.095C69.7656 48.6574 67.2688 51.2318 63.4456 51.2318H59.8568V38.8534H63.4456ZM77.1768 54.1446H80.3752V35.9414H77.1768V54.1446ZM93.872 54.4558C97.096 54.4558 99.6704 53.1566 101.464 51.6222V43.9774H93.7152V46.7598H98.3688V50.1662C97.2512 50.9982 95.6904 51.5446 93.9744 51.5446C90.2568 51.5446 87.7848 48.7878 87.7848 45.0438V44.9918C87.7848 41.5062 90.3344 38.5686 93.6888 38.5686C96.0024 38.5686 97.3816 39.3214 98.784 40.5182L100.814 38.1006C98.94 36.5134 96.9904 35.6294 93.8176 35.6294C88.3312 35.6294 84.4296 39.947 84.4296 45.0438V45.0958C84.4312 50.3998 88.1768 54.4558 93.872 54.4558ZM105.807 54.1446H109.006V35.9414H105.807V54.1446ZM118.341 54.1446H121.566V38.9062H127.34V35.9414H112.57V38.9062H118.341V54.1446ZM126.818 54.1446L134.828 35.8118H137.792L145.802 54.1446H142.42C139.769 47.8294 139.114 46.247 136.258 39.6342C133.751 45.4814 132.545 48.3926 130.094 54.1446H126.818ZM148.922 54.1446H161.69V51.2318H152.121V35.9414H148.922V54.1446Z" fill="#62574F"/>
<path fill-rule="evenodd" clip-rule="evenodd" d="M57.8 62.7934C57.8 62.0158 58.5048 61.407 59.612 61.407C60.4864 61.407 61.2768 61.6878 62.0672 62.331L62.6272 61.5902C61.764 60.8974 60.8776 60.5446 59.636 60.5446C58.0184 60.5446 56.8408 61.5166 56.8408 62.879C56.8408 64.2894 57.74 64.9214 59.6976 65.347C61.484 65.7238 61.9096 66.1726 61.9096 66.9758C61.9096 67.839 61.1552 68.4342 60.0144 68.4342C58.8352 68.4342 57.9832 68.0334 57.096 67.231L56.5 67.9358C57.5216 68.847 58.628 69.2966 59.976 69.2966C61.6664 69.2966 62.8816 68.3486 62.8816 66.8774C62.8816 65.5654 62.0072 64.8718 60.1104 64.459C58.2376 64.0582 57.8 63.6086 57.8 62.7934ZM82.6104 67.8262L81.9784 67.2062C81.1624 67.9846 80.3976 68.4334 79.2304 68.4334C77.3568 68.4334 75.936 66.891 75.936 64.9078C75.936 62.9262 77.3464 61.4062 79.2304 61.4062C80.384 61.4062 81.1872 61.8926 81.9056 62.5734L82.5616 61.8686C81.7112 61.0662 80.7864 60.519 79.2432 60.519C76.7376 60.519 74.9384 62.5006 74.9384 64.9318C74.9384 67.387 76.7504 69.3206 79.2056 69.3206C80.7496 69.3222 81.7216 68.727 82.6104 67.8262ZM100.637 65.347V69.1758H101.596V60.6662H100.637V64.447H95.7248V60.6662H94.7632V69.175H95.7248V65.3462L100.637 65.347ZM122.784 64.9086C122.784 62.5502 121.045 60.5198 118.455 60.5198C115.866 60.5198 114.103 62.5742 114.103 64.9326C114.103 67.291 115.842 69.3214 118.432 69.3214C121.021 69.3222 122.784 67.2678 122.784 64.9086ZM121.786 64.9334C121.786 66.8782 120.401 68.4342 118.454 68.4342C116.51 68.4342 115.1 66.8542 115.1 64.9086C115.1 62.9646 116.486 61.407 118.431 61.407C120.376 61.407 121.786 62.9878 121.786 64.9334ZM143.592 64.9086C143.592 62.5502 141.854 60.5198 139.266 60.5198C136.676 60.5198 134.914 62.5742 134.914 64.9326C134.914 67.291 136.653 69.3214 139.242 69.3214C141.831 69.3222 143.592 67.2678 143.592 64.9086ZM142.597 64.9334C142.597 66.8782 141.21 68.4342 139.266 68.4342C137.322 68.4342 135.911 66.8542 135.911 64.9086C135.911 62.9646 137.296 61.407 139.242 61.407C141.186 61.407 142.597 62.9878 142.597 64.9334ZM156.1 69.1758H161.85V68.2886H157.06V60.6662H156.1V69.1758Z" fill="#62574F"/>
</g>
</g>
<defs>
<clipPath id="clip0_1_611">
<rect width="168" height="88" fill="white" transform="translate(0.5 0.30957)"/>
</clipPath>
<clipPath id="clip1_1_611">
<rect width="168" height="88" fill="white" transform="translate(0.5 0.30957)"/>
</clipPath>
</defs>
</svg>
