<svg width="169" height="89" viewBox="0 0 169 89" fill="none" xmlns="http://www.w3.org/2000/svg">
<g clip-path="url(#clip0_1_640)">
<g clip-path="url(#clip1_1_640)">
<path fill-rule="evenodd" clip-rule="evenodd" d="M29.86 73.8296C29.62 73.6696 29.38 73.4296 29.14 73.2696L24.98 65.9096C25.54 65.3496 25.78 64.4696 25.62 63.6696C25.3 62.4696 24.18 61.6696 22.98 61.8296L14.42 43.1896L21.54 42.6296L20.9 39.9096C20.02 35.6696 26.5 26.9496 38.9 21.1896C51.3 15.5896 62.18 16.4696 64.82 19.9096L66.5 22.1496L80.98 7.98956L32.74 6.54956L1.3 44.2296L12.66 43.3496L21.3 62.6296C20.82 63.1896 20.58 63.9896 20.74 64.7896C20.98 65.9096 22.02 66.7096 23.14 66.7096L26.26 75.2696C25.46 76.2296 25.06 77.5896 25.38 78.8696C25.86 81.1096 28.1 82.4696 30.34 81.9896C32.58 81.5096 33.94 79.2696 33.46 77.0296C33.06 75.1896 31.54 73.9896 29.86 73.8296Z" fill="#404041"/>
<path fill-rule="evenodd" clip-rule="evenodd" d="M35.62 46.1495C35.62 41.9895 36.82 38.6295 39.14 35.9895C41.62 33.1895 45.06 31.7495 48.98 31.7495C52.26 31.7495 55.14 32.6295 57.46 34.3095C59.54 35.9895 60.98 38.1495 61.62 40.5495C65.94 38.4695 69.86 36.7895 72.74 35.6695L63.54 22.7895C61.14 19.5095 51.22 18.6295 39.94 23.7495C28.74 29.0295 22.82 37.1895 23.7 41.2695L27.46 57.9895C29.94 56.6295 33.22 54.8695 37.06 52.8695C36.1 50.9495 35.62 48.7095 35.62 46.1495Z" fill="#00A7E1"/>
<path d="M49.62 46.6297C49.62 47.1897 49.78 47.5896 50.18 47.9896C50.58 48.3896 50.98 48.5496 51.54 48.5496H53.78C53.54 49.8296 53.06 50.7896 52.26 51.5096C51.46 52.2296 50.5 52.5497 49.22 52.5497C47.54 52.5497 46.26 51.9896 45.38 50.8696C44.42 49.7496 43.94 48.1496 43.94 46.1496C43.94 44.1496 44.42 42.5497 45.3 41.4297C46.18 40.3097 47.46 39.7496 48.98 39.7496C50.18 39.7496 51.14 39.9897 51.86 40.4696C52.34 40.8696 52.66 41.1897 52.9 41.6697C53.22 42.3896 53.78 42.7096 54.58 42.7096H57.3C56.98 40.7896 56.1 39.2696 54.66 38.0697C53.14 36.9497 51.22 36.3896 48.9 36.3896C46.26 36.3896 44.1 37.2696 42.5 39.1096C40.98 40.8696 40.18 43.1896 40.18 46.1496C40.18 49.1896 40.98 51.5096 42.58 53.2696C44.1 55.0296 46.26 55.9096 48.9 55.9096C50.02 55.9096 51.06 55.7497 51.94 55.3497C52.82 54.9497 53.62 54.2296 54.26 53.2696L54.42 53.9896C54.66 55.0296 55.3 55.5096 56.34 55.5096H57.38V45.3496H49.62V46.6297Z" fill="#00A7E1"/>
<path d="M67.14 41.1096C66.18 41.1096 65.22 41.2696 64.34 41.5096C63.46 41.7496 62.66 42.1496 61.94 42.7096C61.22 43.2696 60.66 44.0696 60.26 45.0296C59.86 45.9896 59.62 47.1896 59.62 48.5496V55.5096H63.38V48.1496C63.38 47.1096 63.62 46.3096 64.1 45.7496C64.58 45.1896 65.38 45.0296 66.42 45.0296H67.7V41.1096C67.62 41.1096 67.54 41.1096 67.46 41.1096C67.3 41.1096 67.22 41.1096 67.14 41.1096Z" fill="#00A7E1"/>
<path d="M79.7 41.8296C78.66 41.1096 77.14 40.7896 75.14 40.7896C73.38 40.7896 71.94 41.1896 70.98 42.0696C70.1 42.7896 69.62 43.6696 69.46 44.7896H73.06C73.22 44.3896 73.54 44.1496 73.94 43.9896C74.34 43.8296 74.82 43.7496 75.3 43.7496C75.78 43.7496 76.26 43.8296 76.82 43.9896C77.38 44.1496 77.62 44.4696 77.62 45.0296C77.62 45.7496 76.82 46.2296 75.22 46.4696C74.9 46.4696 74.58 46.5496 74.34 46.6296C74.1 46.7096 73.86 46.7096 73.7 46.7096C72.34 46.9496 71.22 47.3496 70.34 47.9896C69.46 48.6296 68.98 49.7496 68.98 51.1896C68.98 52.7896 69.46 53.9896 70.42 54.7096C71.38 55.4296 72.5 55.7496 73.86 55.7496C74.5 55.7496 75.22 55.6696 76.1 55.5896C76.98 55.5096 77.78 55.2695 78.5 54.8695C79.22 54.5496 79.86 53.9096 80.34 53.1096C80.9 52.3096 81.14 51.1896 81.14 49.7496V44.8696C81.22 43.5096 80.74 42.5496 79.7 41.8296ZM77.7 49.5896C77.7 50.6296 77.38 51.3496 76.82 51.9896C76.26 52.5496 75.46 52.8695 74.42 52.8695C73.78 52.8695 73.38 52.7095 72.98 52.4696C72.66 52.1495 72.5 51.7496 72.5 51.1896C72.5 50.7896 72.66 50.3896 72.9 49.9896C73.22 49.6696 73.62 49.4296 74.34 49.2696L75.62 49.0296C76.5 48.7896 77.22 48.5496 77.7 48.3096V49.5896Z" fill="#00A7E1"/>
<path d="M94.5 36.8696H92.66V43.0296C92.26 42.3096 91.62 41.7496 90.9 41.3496C90.18 40.9496 89.46 40.7896 88.5 40.7896C86.82 40.7896 85.46 41.5096 84.34 42.8696C83.3 44.2296 82.74 46.0696 82.74 48.3096C82.74 50.6296 83.3 52.4696 84.34 53.7496C84.9 54.4696 85.62 54.9496 86.5 55.2696C87.38 55.5896 88.34 55.7496 89.22 55.7496C90.98 55.7496 92.58 55.2696 94.02 54.3896C95.46 53.5096 96.26 51.7496 96.26 49.1896V38.7096C96.26 38.2296 96.1 37.8296 95.7 37.4296C95.46 37.0296 94.98 36.8696 94.5 36.8696ZM91.94 51.5096C91.38 52.2296 90.66 52.6296 89.7 52.6296C88.66 52.6296 87.94 52.2296 87.38 51.5096C86.82 50.7896 86.58 49.6696 86.58 48.2296C86.58 46.9496 86.82 45.9096 87.38 45.1896C87.94 44.4696 88.66 44.0696 89.62 44.0696C90.58 44.0696 91.38 44.4696 91.94 45.1096C92.5 45.8296 92.74 46.8696 92.74 48.1496C92.66 49.5896 92.42 50.7096 91.94 51.5096Z" fill="#00A7E1"/>
<path d="M107.7 41.6696C107.38 42.0696 107.22 42.4696 107.22 42.9496V50.3096C107.22 51.1896 106.98 51.8296 106.42 52.2296C105.86 52.6296 105.3 52.7896 104.66 52.7896C104.02 52.7896 103.46 52.6296 102.9 52.2296C102.42 51.8296 102.18 51.1896 102.18 50.3096V41.1096H98.42V49.5096C98.42 51.9896 99.06 53.6696 100.34 54.3896C101.62 55.1896 103.06 55.5896 104.58 55.6696C106.18 55.6696 107.62 55.2696 108.98 54.4696C110.34 53.6696 110.98 51.9896 110.98 49.4296V41.1096H109.06C108.42 41.1096 108.02 41.2696 107.7 41.6696Z" fill="#00A7E1"/>
<path d="M123.14 41.8296C122.1 41.1096 120.66 40.7896 118.58 40.7896C116.82 40.7896 115.38 41.1896 114.42 42.0696C113.54 42.7896 113.06 43.6696 112.9 44.7896H116.5C116.66 44.3896 116.98 44.1496 117.38 43.9896C117.78 43.8296 118.26 43.7496 118.74 43.7496C119.22 43.7496 119.7 43.8296 120.26 43.9896C120.82 44.1496 121.06 44.4696 121.06 45.0296C121.06 45.7496 120.26 46.2296 118.66 46.4696C118.34 46.4696 118.02 46.5496 117.78 46.6296C117.54 46.7096 117.3 46.7096 117.14 46.7096C115.78 46.9496 114.66 47.3496 113.78 47.9896C112.9 48.6296 112.42 49.7496 112.42 51.1896C112.42 52.7896 112.9 53.9896 113.86 54.7096C114.82 55.4296 115.94 55.7496 117.3 55.7496C117.94 55.7496 118.66 55.6696 119.54 55.5896C120.42 55.5096 121.22 55.2695 121.94 54.8695C122.66 54.5496 123.3 53.9096 123.78 53.1096C124.34 52.3096 124.58 51.1896 124.58 49.7496V44.8696C124.66 43.5096 124.18 42.5496 123.14 41.8296ZM121.14 49.5896C121.14 50.6296 120.82 51.3496 120.26 51.9896C119.7 52.5496 118.9 52.8695 117.86 52.8695C117.22 52.8695 116.74 52.7095 116.42 52.4696C116.1 52.1495 115.94 51.7496 115.94 51.1896C115.94 50.7896 116.1 50.3896 116.34 49.9896C116.66 49.6696 117.06 49.4296 117.78 49.2696L119.06 49.0296C119.94 48.7896 120.66 48.5496 121.14 48.3096V49.5896Z" fill="#00A7E1"/>
<path d="M130.74 38.7096C130.74 38.2296 130.58 37.7496 130.18 37.4296C129.78 37.1096 129.38 36.8696 128.9 36.8696H126.98V52.7096C126.98 54.3896 127.7 55.2696 129.06 55.3496C130.42 55.4296 131.7 55.5096 132.9 55.4296V52.6296H131.78C131.06 52.6296 130.66 52.3096 130.66 51.7496V43.7496H131.06C131.54 43.7496 132.02 43.5896 132.34 43.2696C132.66 42.9496 132.9 42.4696 132.9 41.9096V41.1896H130.66L130.74 38.7096Z" fill="#00A7E1"/>
<path d="M136.98 36.8696H135.06V39.8296H138.82V38.7096C138.82 38.2296 138.66 37.7496 138.26 37.4296C137.86 37.1096 137.46 36.8696 136.98 36.8696Z" fill="#00A7E1"/>
<path d="M136.98 41.1096H135.06V55.5096H138.82V42.9496C138.82 42.4696 138.66 41.9896 138.26 41.6696C137.86 41.2696 137.46 41.1096 136.98 41.1096Z" fill="#00A7E1"/>
<path d="M149.3 41.1896C148.1 40.7896 146.82 40.6296 145.3 40.8696C143.86 41.0296 142.58 41.6696 141.7 42.7896C141.14 43.4296 140.74 44.2296 140.42 45.1896C140.1 46.1496 140.02 47.1096 140.02 48.0696C140.02 49.2696 140.18 50.3896 140.5 51.5096C140.82 52.6296 141.38 53.5096 142.1 54.1496C142.82 54.7896 143.78 55.2696 144.98 55.5096C146.18 55.7496 147.38 55.7496 148.58 55.4296C149.94 55.1096 150.98 54.3896 151.86 53.1896C152.26 52.6296 152.58 51.9096 152.82 51.1096C153.06 50.3096 153.22 49.2696 153.22 48.1496C153.22 46.5496 152.9 45.1896 152.34 43.9896C151.7 42.7096 150.66 41.7496 149.3 41.1896ZM148.9 51.3496C148.5 51.9896 147.94 52.3896 147.38 52.5496C146.82 52.7096 146.26 52.7096 145.7 52.4696C145.14 52.3096 144.82 51.9896 144.58 51.7496C144.02 51.1096 143.7 49.9896 143.7 48.3096C143.62 46.7096 143.94 45.4296 144.74 44.6296C144.98 44.3896 145.38 44.1496 145.94 43.9896C146.5 43.8296 147.06 43.8296 147.54 43.9896C148.1 44.1496 148.58 44.5496 148.98 45.2696C149.38 45.9096 149.62 46.8696 149.62 48.1496C149.54 49.6696 149.3 50.7096 148.9 51.3496Z" fill="#00A7E1"/>
<path d="M165.78 42.0696C164.42 41.2696 162.98 40.7896 161.38 40.7896C159.86 40.8696 158.42 41.3496 157.14 42.1496C155.86 42.9496 155.22 44.6296 155.22 47.0296V55.5096H158.98V46.3096C158.98 45.4296 159.22 44.7896 159.7 44.3896C160.18 43.9896 160.82 43.8296 161.46 43.8296C162.1 43.8296 162.66 43.9896 163.22 44.3896C163.78 44.7896 164.02 45.4296 164.02 46.3096V53.6695C164.02 54.2295 164.18 54.6296 164.5 55.0296C164.82 55.3496 165.3 55.5096 165.86 55.5096H167.78V47.0296C167.7 44.5496 167.06 42.8696 165.78 42.0696Z" fill="#00A7E1"/>
</g>
</g>
<defs>
<clipPath id="clip0_1_640">
<rect width="168" height="88" fill="white" transform="translate(0.5 0.30957)"/>
</clipPath>
<clipPath id="clip1_1_640">
<rect width="168" height="88" fill="white" transform="translate(0.5 0.30957)"/>
</clipPath>
</defs>
</svg>
