<svg width="60" height="61" viewBox="0 0 60 61" fill="none" xmlns="http://www.w3.org/2000/svg">
<path d="M50.9102 0.660156C51.2641 0.978093 51.61 1.30103 51.392 1.84792C51.1741 2.39481 50.7171 2.42081 50.2272 2.42081C41.0677 2.42081 31.9086 2.42081 22.7498 2.42081C21.0501 2.42081 20.4412 3.03369 20.4412 4.75734V14.6024H21.109C24.5083 14.6024 27.9074 14.6024 31.3067 14.6024C32.2935 14.6024 32.5569 14.8613 32.5589 15.8461C32.5589 16.529 32.5726 17.2149 32.5276 17.8947C32.4861 18.5825 32.2012 19.2331 31.7236 19.7298C31.246 20.2265 30.6069 20.5368 29.9212 20.6052C29.6109 20.6413 29.2987 20.6594 28.9863 20.6592C25.1004 20.6625 21.2141 20.6625 17.3275 20.6592H16.565V21.337C16.565 32.7421 16.5611 44.1471 16.5538 55.5522C16.54 55.7308 16.5759 55.9099 16.6568 56.0697C16.7377 56.2296 16.8606 56.3643 17.0127 56.459C17.4564 56.7824 17.8236 57.1995 18.0881 57.6807C18.3527 58.1619 18.5083 58.6955 18.5436 59.2434C18.6166 59.9953 18.2653 60.4152 17.5174 60.4172C13.9242 60.4272 10.3311 60.4272 6.73786 60.4172C5.72906 60.4172 5.22897 59.8353 5.22498 58.7425C5.21898 56.458 5.22498 54.1725 5.22498 51.8879C5.22498 48.1387 5.22498 44.3891 5.22498 40.6392C5.21552 40.3865 5.24158 40.1338 5.30211 39.8883C5.34956 39.695 5.46913 39.5273 5.63651 39.4196C5.8039 39.3119 6.00626 39.2725 6.20183 39.3094C6.39025 39.3168 6.56997 39.3915 6.70808 39.5199C6.84619 39.6483 6.93349 39.8219 6.95461 40.0093C6.9829 40.2223 6.99197 40.4375 6.98097 40.6522C6.98097 45.4172 6.98097 50.1829 6.98097 54.9493V55.6062H10.0141V54.9063C10.0141 50.0406 10.0141 45.1779 10.0141 40.3182C10.0083 40.1426 10.0115 39.9667 10.0233 39.7913C10.0291 39.564 10.1235 39.3479 10.287 39.1898C10.4504 39.0316 10.6697 38.9439 10.8972 38.9455C11.125 38.9468 11.343 39.0371 11.505 39.1973C11.667 39.3574 11.7598 39.5746 11.7637 39.8023C11.7807 39.9763 11.772 40.1533 11.772 40.3292V55.5952H14.7714V33.6246H6.97267C6.97267 34.1984 6.97267 34.7943 6.97267 35.3902C6.97267 35.6052 6.97988 35.8211 6.96389 36.0341C6.96844 36.2528 6.88571 36.4644 6.73444 36.6224C6.58317 36.7804 6.37561 36.8719 6.15692 36.8769C6.04404 36.8903 5.92975 36.88 5.82105 36.8468C5.71235 36.8136 5.61182 36.7581 5.5257 36.6839C5.43958 36.6098 5.36962 36.5185 5.32066 36.4159C5.2717 36.3133 5.2446 36.2017 5.24109 36.0881C5.1921 35.5452 5.21923 34.9963 5.21424 34.4494C5.21424 34.1785 5.21424 33.9075 5.21424 33.6646C4.573 33.5421 3.9427 33.3669 3.33034 33.1407C2.55561 32.8189 1.89608 32.2707 1.43814 31.5678C0.980195 30.8649 0.745296 30.0401 0.763954 29.2014C0.718963 25.8231 0.711964 22.4438 0.763954 19.0665C0.76272 18.4774 0.878495 17.8939 1.10471 17.3499C1.33092 16.806 1.66295 16.3124 2.08156 15.8979C2.50017 15.4834 2.99703 15.1562 3.54318 14.9353C4.08933 14.7145 4.67398 14.6043 5.26305 14.6114C5.84594 14.5964 6.42993 14.6114 7.04981 14.6114C7.15676 14.3223 7.16956 14.0068 7.08642 13.7099C7.00328 13.4131 6.82857 13.1502 6.58701 12.9587C6.01128 12.4988 5.54728 11.9142 5.23035 11.249C4.91341 10.5838 4.75174 9.85531 4.7573 9.11847C4.7213 7.38082 4.72444 5.64216 4.75144 3.9045C4.74204 3.21411 4.95756 2.53944 5.36557 1.98243C5.77358 1.42543 6.35163 1.01638 7.0127 0.817123C7.11552 0.774146 7.21597 0.725065 7.31294 0.670149H12.8206C12.8986 0.720617 12.9806 0.764753 13.0657 0.802126C13.7482 0.996246 14.3466 1.41245 14.766 1.98486C15.1854 2.55727 15.4018 3.25318 15.3811 3.96249C15.4051 5.66215 15.4071 7.36182 15.3811 9.05348C15.3943 9.76967 15.2488 10.4799 14.955 11.1331C14.6611 11.7864 14.2259 12.3665 13.6813 12.8317C13.4299 13.0342 13.246 13.3084 13.1541 13.6179C13.0621 13.9273 13.0667 14.2574 13.1667 14.5644H18.6832V13.8785C18.6832 10.7378 18.6832 7.5971 18.6832 4.45639C18.6457 3.87919 18.7533 3.30177 18.9957 2.77657C19.238 2.25137 19.6076 1.79503 20.0711 1.449C20.5635 1.14696 21.0801 0.886436 21.6157 0.670149L50.9102 0.660156ZM30.7609 16.39C30.6079 16.378 30.475 16.358 30.342 16.358C24.6985 16.358 19.0549 16.3544 13.4113 16.347C13.2711 16.3377 13.1323 16.3758 13.0164 16.4553C12.9005 16.5347 12.8147 16.6508 12.7728 16.7849C12.5554 17.2405 12.2229 17.6314 11.8081 17.919C11.3933 18.2066 10.9104 18.3809 10.4075 18.4247C9.9047 18.4685 9.39932 18.3804 8.94103 18.1689C8.48274 17.9574 8.08769 17.6299 7.79477 17.2188C7.61624 16.8896 7.33537 16.6274 6.99464 16.472C6.65391 16.3165 6.27168 16.2761 5.90599 16.357C5.71203 16.373 5.51513 16.357 5.32017 16.357C4.9525 16.3443 4.58599 16.4067 4.24324 16.5403C3.90049 16.674 3.58843 16.8761 3.32643 17.1344C3.06443 17.3926 2.85819 17.7016 2.71962 18.0424C2.58104 18.3832 2.51302 18.7487 2.52044 19.1165C2.49711 22.4558 2.49711 25.7951 2.52044 29.1345C2.51339 29.4879 2.57924 29.8389 2.71327 30.166C2.8473 30.4931 3.04706 30.7892 3.30007 31.036C3.55308 31.2828 3.85388 31.4751 4.18417 31.601C4.51445 31.7269 4.86698 31.7837 5.22009 31.7679V31.1361C5.22009 28.2066 5.22009 25.2776 5.22009 22.3488C5.21061 22.0961 5.23858 21.8434 5.30309 21.599C5.32033 21.5062 5.35666 21.4181 5.40951 21.34C5.46236 21.2619 5.53049 21.1955 5.61015 21.145C5.68981 21.0945 5.77911 21.061 5.87231 21.0466C5.9655 21.0322 6.06083 21.0371 6.15204 21.0611C6.46911 21.1996 6.73933 21.4267 6.93069 21.715C7.03667 21.8549 6.97365 22.1309 6.97365 22.3448C6.97365 25.2742 6.97365 28.2033 6.97365 31.1321V31.7579H14.7983V31.0771C14.7983 27.5818 14.7983 24.0861 14.7983 20.5902C14.7983 19.2544 15.1594 18.8905 16.4981 18.8905C20.564 18.8905 24.6258 18.8905 28.6837 18.8905C30.5433 18.8905 30.8638 18.5566 30.7829 16.6909C30.7919 16.603 30.7749 16.511 30.7609 16.39ZM10.0653 6.55598C9.40145 6.55598 8.73735 6.53998 8.07548 6.55598C7.86469 6.54334 7.65356 6.57602 7.45646 6.65183C7.25937 6.72764 7.08112 6.84483 6.93313 6.99547C6.78514 7.14611 6.67102 7.32671 6.59872 7.52512C6.52643 7.72352 6.4974 7.93512 6.51378 8.14566C6.49926 8.63262 6.52609 9.11993 6.59384 9.60237C6.70121 10.1989 6.95997 10.7579 7.34565 11.2255C7.73132 11.6932 8.23081 12.0538 8.79604 12.2727C9.36127 12.4917 9.97346 12.5617 10.5735 12.4759C11.1736 12.3901 11.7414 12.1515 12.2226 11.7829C12.7317 11.3692 13.1286 10.834 13.3767 10.2267C13.6248 9.61943 13.716 8.95949 13.6422 8.30763C13.6739 8.0689 13.65 7.82609 13.5724 7.59811C13.4949 7.37014 13.3657 7.16315 13.1951 6.99326C13.0244 6.82336 12.8171 6.69516 12.5887 6.61862C12.3604 6.54208 12.1175 6.51928 11.8789 6.55198C11.269 6.55098 10.6648 6.55897 10.0599 6.55897L10.0653 6.55598ZM10.4022 4.73834L10.3162 4.63036C10.5904 4.34975 10.9108 4.11872 11.2638 3.94749C11.7767 3.80452 12.0799 4.17345 12.2319 4.65835C12.2518 4.69963 12.2805 4.73611 12.3158 4.76528C12.3512 4.79444 12.3926 4.8156 12.4369 4.82732C12.8238 4.9183 13.2145 4.99028 13.6364 5.07427C13.6364 4.63335 13.6584 4.22344 13.6364 3.81652C13.624 3.45054 13.4724 3.10316 13.2121 2.84553C12.9519 2.58789 12.6028 2.43952 12.2368 2.4308C10.7944 2.40547 9.35157 2.40547 7.90852 2.4308C7.57292 2.43856 7.25101 2.56592 7.00099 2.78992C6.75096 3.01391 6.58949 3.31982 6.54502 3.65255C6.51492 4.0815 6.51101 4.5119 6.5338 4.9413L10.4022 4.73834ZM11.7398 58.6486C11.6418 58.3421 11.4578 58.0703 11.2096 57.8656C10.9614 57.6609 10.6596 57.5318 10.3402 57.4938C9.24038 57.4238 8.14073 57.4748 7.02296 57.4748V58.6486H11.7398ZM8.87464 14.2084C8.94262 15.0593 8.62233 15.9701 9.55614 16.508C9.75934 16.6292 9.99562 16.6832 10.2313 16.6624C10.467 16.6416 10.6901 16.547 10.8689 16.392C11.1267 16.0949 11.2986 15.7328 11.3653 15.3451C11.4321 14.9574 11.3913 14.5588 11.2477 14.1925C10.8758 14.2204 10.5079 14.2684 10.14 14.2714C9.75209 14.2724 9.36554 14.2344 8.87464 14.2094V14.2084ZM16.5508 58.6376C16.0659 57.5898 15.0233 57.1768 13.2097 57.4748C13.373 57.8654 13.5348 58.253 13.6954 58.6376H16.5508Z" fill="#101010"/>
<path d="M56.3007 0.660232C56.7754 0.827322 57.2353 1.034 57.6754 1.2781C58.1865 1.60884 58.6018 2.068 58.8797 2.60964C59.1577 3.15128 59.2884 3.75642 59.2591 4.36449C59.2551 13.29 59.2521 22.2156 59.2508 31.1411C59.278 31.6417 59.1987 32.1424 59.0179 32.61C58.8371 33.0776 58.559 33.5015 58.2021 33.8536C57.8452 34.2057 57.4175 34.4779 56.9475 34.6524C56.4775 34.8268 55.9758 34.8994 55.4756 34.8654C52.9951 34.8784 50.5148 34.8654 48.0343 34.8654H47.4006C47.2773 35.2633 47.1255 35.6519 46.9466 36.0282C46.652 36.5848 46.2055 37.0466 45.6592 37.3602C45.113 37.6737 44.4895 37.8261 43.8603 37.7998C42.5166 37.8088 41.1715 37.7998 39.7688 37.7998C39.7568 38.0438 39.74 38.2497 39.74 38.4567C39.74 41.679 39.7458 44.9014 39.7298 48.1237C39.7199 48.3146 39.7522 48.5053 39.8245 48.6823C39.8967 48.8593 40.007 49.0181 40.1476 49.1475C43.4037 52.3822 46.6515 55.6256 49.8908 58.8776C50.6107 59.5984 50.6005 60.0044 49.8557 60.6552H49.2698C48.9969 60.4093 48.7101 60.1753 48.4502 59.9164C46.9025 58.3767 45.3599 56.832 43.8222 55.2823C43.652 55.0725 43.5006 54.848 43.3701 54.6114C42.1014 55.8842 40.9896 57.001 39.8708 58.1167C38.986 59.0026 38.709 59.0006 37.8122 58.1027C36.6984 56.988 35.5859 55.8732 34.4281 54.7134C32.7564 56.3961 31.1284 58.0438 29.4867 59.6814C29.1438 60.0234 28.7673 60.3313 28.4063 60.6552H27.82C27.1062 59.9734 27.1032 59.5794 27.82 58.8656C31.0634 55.6196 34.3099 52.3766 37.5593 49.1365C37.7015 49.0083 37.8134 48.8502 37.8874 48.6735C37.9613 48.4969 37.9958 48.3061 37.9874 48.1147C37.9694 44.9154 37.9772 41.71 37.9772 38.5077V37.8008H33.2052C32.3165 37.8939 31.4259 37.6405 30.7194 37.0935C30.0128 36.5465 29.5446 35.7481 29.412 34.8644H28.5123C26.5397 34.8644 24.5681 34.8644 22.5955 34.8644C22.0714 34.9111 21.5435 34.8424 21.0489 34.6631C20.5543 34.4837 20.1046 34.1981 19.7323 33.8264C19.36 33.4546 19.0737 33.0058 18.8936 32.5114C18.7135 32.0171 18.6441 31.4893 18.69 30.9652C18.69 28.5656 18.6792 26.1661 18.7042 23.7596C18.6985 23.4358 18.81 23.1209 19.0181 22.8728C19.135 22.7815 19.2724 22.72 19.4184 22.6939C19.5644 22.6678 19.7145 22.6777 19.8558 22.7228C19.9994 22.8066 20.1237 22.9197 20.2205 23.0548C20.3173 23.1898 20.3845 23.3438 20.4177 23.5067C20.4678 24.2271 20.4781 24.9497 20.448 25.6712C20.448 27.4709 20.448 29.2645 20.448 31.0611C20.4136 31.3355 20.4416 31.6141 20.5305 31.8759C20.6193 32.1378 20.7664 32.376 20.9606 32.5728C21.1548 32.7697 21.3912 32.9199 21.6518 33.0122C21.9125 33.1045 22.1904 33.1365 22.4651 33.1057C33.4783 33.1097 44.4918 33.1097 55.5049 33.1057C55.7748 33.1369 56.0481 33.1066 56.3046 33.017C56.561 32.9275 56.7938 32.781 56.9856 32.5886C57.1774 32.3962 57.323 32.1629 57.4118 31.9062C57.5006 31.6494 57.5302 31.3759 57.4982 31.1061C57.5028 22.2019 57.5028 13.2977 57.4982 4.39348C57.5269 4.1239 57.4944 3.85133 57.403 3.59611C57.3116 3.34088 57.1638 3.1096 56.9705 2.91955C56.7771 2.72949 56.5433 2.58557 56.2865 2.49853C56.0298 2.41149 55.7569 2.38358 55.4878 2.41688C55.1559 2.41688 54.824 2.40889 54.488 2.41688C53.9941 2.43088 53.538 2.37189 53.332 1.83199C53.1261 1.2921 53.4682 0.961166 53.8422 0.657227L56.3007 0.660232ZM31.2896 34.8854C31.386 35.2587 31.6166 35.5833 31.9374 35.7973C32.2581 36.0112 32.6468 36.0995 33.0285 36.0452C35.7612 36.0505 38.4937 36.0505 41.2265 36.0452C42.1054 36.0452 42.9844 36.0582 43.8632 36.0452C44.224 36.0853 44.5865 35.9888 44.8796 35.7746C45.1728 35.5605 45.3753 35.2443 45.4469 34.8884L31.2896 34.8854ZM37.9391 55.5912V51.4291L35.8536 53.5137L37.9391 55.5912ZM41.8216 53.5497L39.7898 51.5271V55.5892L41.8216 53.5497Z" fill="#101010"/>
<path d="M34.4324 17.7646C34.4324 16.4959 34.4244 15.2271 34.4324 13.9584C34.4444 12.3077 35.597 11.6438 37.0247 12.4587C39.2242 13.7211 41.4205 14.9875 43.6127 16.2579C45.0404 17.0847 45.0443 18.4205 43.6195 19.2483C41.41 20.5307 39.1973 21.8075 36.9817 23.0785C36.7364 23.2818 36.435 23.4055 36.1176 23.4331C35.8003 23.4608 35.482 23.3911 35.2052 23.2333C34.9285 23.0755 34.7065 22.8372 34.5686 22.55C34.4307 22.2628 34.3835 21.9405 34.4334 21.6258C34.4194 20.3421 34.4324 19.0533 34.4324 17.7646ZM36.2319 21.4849L42.6847 17.7576L36.2319 14.0354V21.4849Z" fill="#101010"/>
</svg>
