<svg width="88" height="71" viewBox="0 0 88 71" fill="none" xmlns="http://www.w3.org/2000/svg">
<path d="M83.3426 0.0197906C85.6668 0.0197906 87.7176 2.07057 87.7176 4.39479V48.1448C87.7176 50.6057 85.6668 52.5198 83.3426 52.5198H65.8426V8.76979H39.5926V17.5198H17.7176V4.39479C17.7176 2.07057 19.6316 0.0197906 22.0926 0.0197906H83.3426ZM31.9363 14.1018V10.0003C31.9363 9.45338 31.2527 8.76979 30.7058 8.76979H26.6043C25.9207 8.76979 25.3738 9.45338 25.3738 10.0003V14.1018C25.3738 14.7854 25.9207 15.3323 26.6043 15.3323H30.7058C31.2527 15.3323 31.9363 14.7854 31.9363 14.1018ZM80.0613 42.5393V38.4378C80.0613 37.8909 79.3777 37.2073 78.8308 37.2073H74.7293C74.0457 37.2073 73.4988 37.8909 73.4988 38.4378V42.5393C73.4988 43.2229 74.0457 43.7698 74.7293 43.7698H78.8308C79.3777 43.7698 80.0613 43.2229 80.0613 42.5393ZM80.0613 28.3206V24.219C80.0613 23.6721 79.3777 22.9885 78.8308 22.9885H74.7293C74.0457 22.9885 73.4988 23.6721 73.4988 24.219V28.3206C73.4988 29.0042 74.0457 29.551 74.7293 29.551H78.8308C79.3777 29.551 80.0613 29.0042 80.0613 28.3206ZM80.0613 14.1018V10.0003C80.0613 9.45338 79.3777 8.76979 78.8308 8.76979H74.7293C74.0457 8.76979 73.4988 9.45338 73.4988 10.0003V14.1018C73.4988 14.7854 74.0457 15.3323 74.7293 15.3323H78.8308C79.3777 15.3323 80.0613 14.7854 80.0613 14.1018ZM57.0926 21.8948C59.4168 21.8948 61.4676 23.9456 61.4676 26.2698V65.6448C61.4676 68.1057 59.4168 70.0198 57.0926 70.0198H4.59256C2.13163 70.0198 0.217564 68.1057 0.217564 65.6448V26.2698C0.217564 23.9456 2.13163 21.8948 4.59256 21.8948H57.0926ZM13.3426 30.6448C10.8816 30.6448 8.96756 32.6956 8.96756 35.0198C8.96756 37.4807 10.8816 39.3948 13.3426 39.3948C15.6668 39.3948 17.7176 37.4807 17.7176 35.0198C17.7176 32.6956 15.6668 30.6448 13.3426 30.6448ZM52.7176 61.2698V48.1448L39.5926 35.0198L22.0926 52.5198L17.7176 48.1448L8.96756 56.8948V61.2698H52.7176Z" fill="#101010"/>
</svg>
