<svg width="71" height="62" viewBox="0 0 71 62" fill="none" xmlns="http://www.w3.org/2000/svg">
<path d="M70.1239 15.7073V55.0823C70.1239 58.7737 67.1161 61.6448 63.5614 61.6448H6.68637C2.99497 61.6448 0.123875 58.7737 0.123875 55.0823V15.7073C0.123875 12.1526 2.99497 9.14478 6.68637 9.14478H18.7176L20.3582 4.76978C21.3153 2.17212 23.7762 0.394775 26.5106 0.394775H43.6004C46.3348 0.394775 48.7957 2.17212 49.7528 4.76978L51.5301 9.14478H63.5614C67.1161 9.14478 70.1239 12.1526 70.1239 15.7073ZM51.5301 35.3948C51.5301 26.3713 44.1473 18.9885 35.1239 18.9885C25.9637 18.9885 18.7176 26.3713 18.7176 35.3948C18.7176 44.5549 25.9637 51.801 35.1239 51.801C44.1473 51.801 51.5301 44.5549 51.5301 35.3948ZM47.1551 35.3948C47.1551 42.094 41.6864 47.426 35.1239 47.426C28.4247 47.426 23.0926 42.094 23.0926 35.3948C23.0926 28.8323 28.4247 23.3635 35.1239 23.3635C41.6864 23.3635 47.1551 28.8323 47.1551 35.3948Z" fill="white"/>
</svg>
