<svg width="71" height="62" viewBox="0 0 71 62" fill="none" xmlns="http://www.w3.org/2000/svg">
<path d="M6.85636 0.394791H63.7314C67.286 0.394791 70.2939 3.4026 70.2939 6.95729V55.0823C70.2939 58.7737 67.286 61.6448 63.7314 61.6448H6.85636C3.16495 61.6448 0.293858 58.7737 0.293858 55.0823V6.95729C0.293858 3.4026 3.16495 0.394791 6.85636 0.394791ZM6.85636 4.76979C5.62589 4.76979 4.66886 5.86354 4.66886 6.95729V8.32448C4.66886 8.87135 4.9423 9.14479 5.48917 9.14479H21.3485C21.7587 9.14479 22.1689 8.87135 22.1689 8.32448V5.5901C22.1689 5.17995 21.7587 4.76979 21.3485 4.76979H6.85636ZM65.0985 17.8948C65.5087 17.8948 65.9189 17.6214 65.9189 17.0745V6.95729C65.9189 5.86354 64.8251 4.76979 63.7314 4.76979H29.1415C28.8681 4.76979 28.5946 4.90651 28.4579 5.17995L24.3564 11.3323H5.48917C4.9423 11.3323 4.66886 11.7424 4.66886 12.1526V17.0745C4.66886 17.6214 4.9423 17.8948 5.48917 17.8948H65.0985ZM35.2939 53.9885C44.3173 53.9885 51.7001 46.7424 51.7001 37.5823C51.7001 28.5589 44.3173 21.176 35.2939 21.176C26.1337 21.176 18.8876 28.5589 18.8876 37.5823C18.8876 46.7424 26.1337 53.9885 35.2939 53.9885ZM35.2939 25.551C41.8564 25.551 47.3251 31.0198 47.3251 37.5823C47.3251 44.2815 41.8564 49.6135 35.2939 49.6135C28.5946 49.6135 23.2626 44.2815 23.2626 37.5823C23.2626 31.0198 28.5946 25.551 35.2939 25.551ZM28.7314 39.7698C29.8251 39.7698 30.9189 38.8128 30.9189 37.5823C30.9189 35.2581 32.8329 33.2073 35.2939 33.2073C36.3876 33.2073 37.4814 32.2503 37.4814 31.0198C37.4814 29.926 36.3876 28.8323 35.2939 28.8323C30.372 28.8323 26.5439 32.7971 26.5439 37.5823C26.5439 38.8128 27.5009 39.7698 28.7314 39.7698Z" fill="#101010"/>
</svg>
